<?xml version="1.0" encoding="UTF-8" standalone="no"?>
<!DOCTYPE svg PUBLIC "-//W3C//DTD SVG 1.1//EN"
 "http://www.w3.org/Graphics/SVG/1.1/DTD/svg11.dtd">
<!-- Generated by graphviz version 2.43.0 (0)
 -->
<!-- Title: G Pages: 1 -->
<svg width="1073pt" height="44pt"
 viewBox="0.00 0.00 1072.72 44.00" xmlns="http://www.w3.org/2000/svg" xmlns:xlink="http://www.w3.org/1999/xlink">
<g id="graph0" class="graph" transform="scale(1 1) rotate(0) translate(4 40)">
<title>G</title>
<polygon fill="white" stroke="transparent" points="-4,4 -4,-40 1068.72,-40 1068.72,4 -4,4"/>
<!-- tag_input_vars_requires_grad_fn -->
<g id="node1" class="node">
<title>tag_input_vars_requires_grad_fn</title>
<ellipse fill="none" stroke="black" cx="127.39" cy="-18" rx="127.28" ry="18"/>
<text text-anchor="middle" x="127.39" y="-14.3" font-family="Times,serif" font-size="14.00">tag_input_vars_requires_grad_fn</text>
</g>
<!-- run_fwd_pass_to_get_activations -->
<g id="node2" class="node">
<title>run_fwd_pass_to_get_activations</title>
<ellipse fill="none" stroke="black" cx="419.47" cy="-18" rx="128.88" ry="18"/>
<text text-anchor="middle" x="419.47" y="-14.3" font-family="Times,serif" font-size="14.00">run_fwd_pass_to_get_activations</text>
</g>
<!-- tag_input_vars_requires_grad_fn&#45;&gt;run_fwd_pass_to_get_activations -->
<g id="edge1" class="edge">
<title>tag_input_vars_requires_grad_fn&#45;&gt;run_fwd_pass_to_get_activations</title>
<path fill="none" stroke="black" d="M255.2,-18C263.54,-18 271.97,-18 280.37,-18"/>
<polygon fill="black" stroke="black" points="280.59,-21.5 290.59,-18 280.59,-14.5 280.59,-21.5"/>
</g>
<!-- calc_gradients_on_activations -->
<g id="node3" class="node">
<title>calc_gradients_on_activations</title>
<ellipse fill="none" stroke="black" cx="701.14" cy="-18" rx="116.98" ry="18"/>
<text text-anchor="middle" x="701.14" y="-14.3" font-family="Times,serif" font-size="14.00">calc_gradients_on_activations</text>
</g>
<!-- run_fwd_pass_to_get_activations&#45;&gt;calc_gradients_on_activations -->
<g id="edge2" class="edge">
<title>run_fwd_pass_to_get_activations&#45;&gt;calc_gradients_on_activations</title>
<path fill="none" stroke="black" d="M548.44,-18C556.82,-18 565.26,-18 573.64,-18"/>
<polygon fill="black" stroke="black" points="573.82,-21.5 583.82,-18 573.82,-14.5 573.82,-21.5"/>
</g>
<!-- access_gradients_on_input -->
<g id="node4" class="node">
<title>access_gradients_on_input</title>
<ellipse fill="none" stroke="black" cx="959.42" cy="-18" rx="105.08" ry="18"/>
<text text-anchor="middle" x="959.42" y="-14.3" font-family="Times,serif" font-size="14.00">access_gradients_on_input</text>
</g>
<!-- calc_gradients_on_activations&#45;&gt;access_gradients_on_input -->
<g id="edge3" class="edge">
<title>calc_gradients_on_activations&#45;&gt;access_gradients_on_input</title>
<path fill="none" stroke="black" d="M818.29,-18C826.76,-18 835.31,-18 843.77,-18"/>
<polygon fill="black" stroke="black" points="844.05,-21.5 854.05,-18 844.05,-14.5 844.05,-21.5"/>
</g>
</g>
</svg>
