<?xml version="1.0" encoding="UTF-8" standalone="no"?>
<!DOCTYPE svg PUBLIC "-//W3C//DTD SVG 1.1//EN"
 "http://www.w3.org/Graphics/SVG/1.1/DTD/svg11.dtd">
<!-- Generated by graphviz version 2.43.0 (0)
 -->
<!-- Title: G Pages: 1 -->
<svg width="738pt" height="44pt"
 viewBox="0.00 0.00 738.25 44.00" xmlns="http://www.w3.org/2000/svg" xmlns:xlink="http://www.w3.org/1999/xlink">
<g id="graph0" class="graph" transform="scale(1 1) rotate(0) translate(4 40)">
<title>G</title>
<polygon fill="white" stroke="transparent" points="-4,4 -4,-40 734.25,-40 734.25,4 -4,4"/>
<!-- download data -->
<g id="node1" class="node">
<title>download data</title>
<ellipse fill="none" stroke="black" cx="62.39" cy="-18" rx="62.29" ry="18"/>
<text text-anchor="middle" x="62.39" y="-14.3" font-family="Times,serif" font-size="14.00">download data</text>
</g>
<!-- convert to tensor -->
<g id="node2" class="node">
<title>convert to tensor</title>
<ellipse fill="none" stroke="black" cx="230.98" cy="-18" rx="70.39" ry="18"/>
<text text-anchor="middle" x="230.98" y="-14.3" font-family="Times,serif" font-size="14.00">convert to tensor</text>
</g>
<!-- download data&#45;&gt;convert to tensor -->
<g id="edge1" class="edge">
<title>download data&#45;&gt;convert to tensor</title>
<path fill="none" stroke="black" d="M124.95,-18C133.28,-18 141.92,-18 150.5,-18"/>
<polygon fill="black" stroke="black" points="150.53,-21.5 160.53,-18 150.53,-14.5 150.53,-21.5"/>
</g>
<!-- normalize -->
<g id="node3" class="node">
<title>normalize</title>
<ellipse fill="none" stroke="black" cx="383.32" cy="-18" rx="46.29" ry="18"/>
<text text-anchor="middle" x="383.32" y="-14.3" font-family="Times,serif" font-size="14.00">normalize</text>
</g>
<!-- convert to tensor&#45;&gt;normalize -->
<g id="edge2" class="edge">
<title>convert to tensor&#45;&gt;normalize</title>
<path fill="none" stroke="black" d="M301.43,-18C309.87,-18 318.41,-18 326.61,-18"/>
<polygon fill="black" stroke="black" points="326.79,-21.5 336.79,-18 326.79,-14.5 326.79,-21.5"/>
</g>
<!-- split &amp; shuffle -->
<g id="node4" class="node">
<title>split &amp; shuffle</title>
<ellipse fill="none" stroke="black" cx="527.86" cy="-18" rx="62.29" ry="18"/>
<text text-anchor="middle" x="527.86" y="-14.3" font-family="Times,serif" font-size="14.00">split &amp; shuffle</text>
</g>
<!-- normalize&#45;&gt;split &amp; shuffle -->
<g id="edge3" class="edge">
<title>normalize&#45;&gt;split &amp; shuffle</title>
<path fill="none" stroke="black" d="M429.81,-18C437.95,-18 446.61,-18 455.28,-18"/>
<polygon fill="black" stroke="black" points="455.42,-21.5 465.42,-18 455.42,-14.5 455.42,-21.5"/>
</g>
<!-- DataLoader -->
<g id="node5" class="node">
<title>DataLoader</title>
<ellipse fill="none" stroke="black" cx="678.25" cy="-18" rx="51.99" ry="18"/>
<text text-anchor="middle" x="678.25" y="-14.3" font-family="Times,serif" font-size="14.00">DataLoader</text>
</g>
<!-- split &amp; shuffle&#45;&gt;DataLoader -->
<g id="edge4" class="edge">
<title>split &amp; shuffle&#45;&gt;DataLoader</title>
<path fill="none" stroke="black" d="M590.5,-18C598.88,-18 607.48,-18 615.86,-18"/>
<polygon fill="black" stroke="black" points="615.93,-21.5 625.93,-18 615.93,-14.5 615.93,-21.5"/>
</g>
</g>
</svg>
