<?xml version="1.0" encoding="UTF-8" standalone="no"?>
<!DOCTYPE svg PUBLIC "-//W3C//DTD SVG 1.1//EN"
 "http://www.w3.org/Graphics/SVG/1.1/DTD/svg11.dtd">
<!-- Generated by graphviz version 2.43.0 (0)
 -->
<!-- Title: G Pages: 1 -->
<svg width="551pt" height="44pt"
 viewBox="0.00 0.00 551.46 44.00" xmlns="http://www.w3.org/2000/svg" xmlns:xlink="http://www.w3.org/1999/xlink">
<g id="graph0" class="graph" transform="scale(1 1) rotate(0) translate(4 40)">
<title>G</title>
<polygon fill="white" stroke="transparent" points="-4,4 -4,-40 547.46,-40 547.46,4 -4,4"/>
<!-- xt.requires_grad_() -->
<g id="node1" class="node">
<title>xt.requires_grad_()</title>
<ellipse fill="none" stroke="black" cx="78.64" cy="-18" rx="78.79" ry="18"/>
<text text-anchor="middle" x="78.64" y="-14.3" font-family="Times,serif" font-size="14.00">xt.requires_grad_()</text>
</g>
<!-- yt = f(xt) -->
<g id="node2" class="node">
<title>yt = f(xt)</title>
<ellipse fill="none" stroke="black" cx="236.83" cy="-18" rx="43.59" ry="18"/>
<text text-anchor="middle" x="236.83" y="-14.3" font-family="Times,serif" font-size="14.00">yt = f(xt)</text>
</g>
<!-- xt.requires_grad_()&#45;&gt;yt = f(xt) -->
<g id="edge1" class="edge">
<title>xt.requires_grad_()&#45;&gt;yt = f(xt)</title>
<path fill="none" stroke="black" d="M157.74,-18C166.32,-18 174.9,-18 183.06,-18"/>
<polygon fill="black" stroke="black" points="183.15,-21.5 193.15,-18 183.15,-14.5 183.15,-21.5"/>
</g>
<!-- yt.backward() -->
<g id="node3" class="node">
<title>yt.backward()</title>
<ellipse fill="none" stroke="black" cx="376.17" cy="-18" rx="59.59" ry="18"/>
<text text-anchor="middle" x="376.17" y="-14.3" font-family="Times,serif" font-size="14.00">yt.backward()</text>
</g>
<!-- yt = f(xt)&#45;&gt;yt.backward() -->
<g id="edge2" class="edge">
<title>yt = f(xt)&#45;&gt;yt.backward()</title>
<path fill="none" stroke="black" d="M280.53,-18C288.68,-18 297.41,-18 306.14,-18"/>
<polygon fill="black" stroke="black" points="306.36,-21.5 316.36,-18 306.36,-14.5 306.36,-21.5"/>
</g>
<!-- xt.grad -->
<g id="node4" class="node">
<title>xt.grad</title>
<ellipse fill="none" stroke="black" cx="507.71" cy="-18" rx="36" ry="18"/>
<text text-anchor="middle" x="507.71" y="-14.3" font-family="Times,serif" font-size="14.00">xt.grad</text>
</g>
<!-- yt.backward()&#45;&gt;xt.grad -->
<g id="edge3" class="edge">
<title>yt.backward()&#45;&gt;xt.grad</title>
<path fill="none" stroke="black" d="M436.26,-18C444.8,-18 453.47,-18 461.67,-18"/>
<polygon fill="black" stroke="black" points="461.77,-21.5 471.77,-18 461.77,-14.5 461.77,-21.5"/>
</g>
</g>
</svg>
