<?xml version="1.0" encoding="utf-8" standalone="no"?>
<!DOCTYPE svg PUBLIC "-//W3C//DTD SVG 1.1//EN"
  "http://www.w3.org/Graphics/SVG/1.1/DTD/svg11.dtd">
<svg xmlns:xlink="http://www.w3.org/1999/xlink" width="421.125937pt" height="319.406499pt" viewBox="0 0 421.125937 319.406499" xmlns="http://www.w3.org/2000/svg" version="1.1">
 <metadata>
  <rdf:RDF xmlns:dc="http://purl.org/dc/elements/1.1/" xmlns:cc="http://creativecommons.org/ns#" xmlns:rdf="http://www.w3.org/1999/02/22-rdf-syntax-ns#">
   <cc:Work>
    <dc:type rdf:resource="http://purl.org/dc/dcmitype/StillImage"/>
    <dc:date>2023-07-18T02:59:17.221354</dc:date>
    <dc:format>image/svg+xml</dc:format>
    <dc:creator>
     <cc:Agent>
      <dc:title>Matplotlib v3.7.1, https://matplotlib.org/</dc:title>
     </cc:Agent>
    </dc:creator>
   </cc:Work>
  </rdf:RDF>
 </metadata>
 <defs>
  <style type="text/css">*{stroke-linejoin: round; stroke-linecap: butt}</style>
 </defs>
 <g id="figure_1">
  <g id="patch_1">
   <path d="M 0 319.406499 
L 421.125937 319.406499 
L 421.125937 0 
L 0 0 
z
" style="fill: #ffffff"/>
  </g>
  <g id="axes_1">
   <g id="patch_2">
    <path d="M 56.805937 276.446812 
L 413.925938 276.446812 
L 413.925938 10.334812 
L 56.805937 10.334812 
z
" style="fill: #eaeaf2"/>
   </g>
   <g id="matplotlib.axis_1">
    <g id="xtick_1">
     <g id="line2d_1">
      <path d="M 84.043324 276.446812 
L 84.043324 10.334812 
" clip-path="url(#pae39e48791)" style="fill: none; stroke: #ffffff; stroke-linecap: round"/>
     </g>
     <g id="text_1">
      <!-- 0 -->
      <g style="fill: #262626" transform="translate(80.543949 294.305093) scale(0.11 -0.11)">
       <defs>
        <path id="DejaVuSans-30" d="M 2034 4250 
Q 1547 4250 1301 3770 
Q 1056 3291 1056 2328 
Q 1056 1369 1301 889 
Q 1547 409 2034 409 
Q 2525 409 2770 889 
Q 3016 1369 3016 2328 
Q 3016 3291 2770 3770 
Q 2525 4250 2034 4250 
z
M 2034 4750 
Q 2819 4750 3233 4129 
Q 3647 3509 3647 2328 
Q 3647 1150 3233 529 
Q 2819 -91 2034 -91 
Q 1250 -91 836 529 
Q 422 1150 422 2328 
Q 422 3509 836 4129 
Q 1250 4750 2034 4750 
z
" transform="scale(0.015625)"/>
       </defs>
       <use xlink:href="#DejaVuSans-30"/>
      </g>
     </g>
    </g>
    <g id="xtick_2">
     <g id="line2d_2">
      <path d="M 144.572369 276.446812 
L 144.572369 10.334812 
" clip-path="url(#pae39e48791)" style="fill: none; stroke: #ffffff; stroke-linecap: round"/>
     </g>
     <g id="text_2">
      <!-- 20 -->
      <g style="fill: #262626" transform="translate(137.573619 294.305093) scale(0.11 -0.11)">
       <defs>
        <path id="DejaVuSans-32" d="M 1228 531 
L 3431 531 
L 3431 0 
L 469 0 
L 469 531 
Q 828 903 1448 1529 
Q 2069 2156 2228 2338 
Q 2531 2678 2651 2914 
Q 2772 3150 2772 3378 
Q 2772 3750 2511 3984 
Q 2250 4219 1831 4219 
Q 1534 4219 1204 4116 
Q 875 4013 500 3803 
L 500 4441 
Q 881 4594 1212 4672 
Q 1544 4750 1819 4750 
Q 2544 4750 2975 4387 
Q 3406 4025 3406 3419 
Q 3406 3131 3298 2873 
Q 3191 2616 2906 2266 
Q 2828 2175 2409 1742 
Q 1991 1309 1228 531 
z
" transform="scale(0.015625)"/>
       </defs>
       <use xlink:href="#DejaVuSans-32"/>
       <use xlink:href="#DejaVuSans-30" x="63.623047"/>
      </g>
     </g>
    </g>
    <g id="xtick_3">
     <g id="line2d_3">
      <path d="M 205.101415 276.446812 
L 205.101415 10.334812 
" clip-path="url(#pae39e48791)" style="fill: none; stroke: #ffffff; stroke-linecap: round"/>
     </g>
     <g id="text_3">
      <!-- 40 -->
      <g style="fill: #262626" transform="translate(198.102665 294.305093) scale(0.11 -0.11)">
       <defs>
        <path id="DejaVuSans-34" d="M 2419 4116 
L 825 1625 
L 2419 1625 
L 2419 4116 
z
M 2253 4666 
L 3047 4666 
L 3047 1625 
L 3713 1625 
L 3713 1100 
L 3047 1100 
L 3047 0 
L 2419 0 
L 2419 1100 
L 313 1100 
L 313 1709 
L 2253 4666 
z
" transform="scale(0.015625)"/>
       </defs>
       <use xlink:href="#DejaVuSans-34"/>
       <use xlink:href="#DejaVuSans-30" x="63.623047"/>
      </g>
     </g>
    </g>
    <g id="xtick_4">
     <g id="line2d_4">
      <path d="M 265.63046 276.446812 
L 265.63046 10.334812 
" clip-path="url(#pae39e48791)" style="fill: none; stroke: #ffffff; stroke-linecap: round"/>
     </g>
     <g id="text_4">
      <!-- 60 -->
      <g style="fill: #262626" transform="translate(258.63171 294.305093) scale(0.11 -0.11)">
       <defs>
        <path id="DejaVuSans-36" d="M 2113 2584 
Q 1688 2584 1439 2293 
Q 1191 2003 1191 1497 
Q 1191 994 1439 701 
Q 1688 409 2113 409 
Q 2538 409 2786 701 
Q 3034 994 3034 1497 
Q 3034 2003 2786 2293 
Q 2538 2584 2113 2584 
z
M 3366 4563 
L 3366 3988 
Q 3128 4100 2886 4159 
Q 2644 4219 2406 4219 
Q 1781 4219 1451 3797 
Q 1122 3375 1075 2522 
Q 1259 2794 1537 2939 
Q 1816 3084 2150 3084 
Q 2853 3084 3261 2657 
Q 3669 2231 3669 1497 
Q 3669 778 3244 343 
Q 2819 -91 2113 -91 
Q 1303 -91 875 529 
Q 447 1150 447 2328 
Q 447 3434 972 4092 
Q 1497 4750 2381 4750 
Q 2619 4750 2861 4703 
Q 3103 4656 3366 4563 
z
" transform="scale(0.015625)"/>
       </defs>
       <use xlink:href="#DejaVuSans-36"/>
       <use xlink:href="#DejaVuSans-30" x="63.623047"/>
      </g>
     </g>
    </g>
    <g id="xtick_5">
     <g id="line2d_5">
      <path d="M 326.159506 276.446812 
L 326.159506 10.334812 
" clip-path="url(#pae39e48791)" style="fill: none; stroke: #ffffff; stroke-linecap: round"/>
     </g>
     <g id="text_5">
      <!-- 80 -->
      <g style="fill: #262626" transform="translate(319.160756 294.305093) scale(0.11 -0.11)">
       <defs>
        <path id="DejaVuSans-38" d="M 2034 2216 
Q 1584 2216 1326 1975 
Q 1069 1734 1069 1313 
Q 1069 891 1326 650 
Q 1584 409 2034 409 
Q 2484 409 2743 651 
Q 3003 894 3003 1313 
Q 3003 1734 2745 1975 
Q 2488 2216 2034 2216 
z
M 1403 2484 
Q 997 2584 770 2862 
Q 544 3141 544 3541 
Q 544 4100 942 4425 
Q 1341 4750 2034 4750 
Q 2731 4750 3128 4425 
Q 3525 4100 3525 3541 
Q 3525 3141 3298 2862 
Q 3072 2584 2669 2484 
Q 3125 2378 3379 2068 
Q 3634 1759 3634 1313 
Q 3634 634 3220 271 
Q 2806 -91 2034 -91 
Q 1263 -91 848 271 
Q 434 634 434 1313 
Q 434 1759 690 2068 
Q 947 2378 1403 2484 
z
M 1172 3481 
Q 1172 3119 1398 2916 
Q 1625 2713 2034 2713 
Q 2441 2713 2670 2916 
Q 2900 3119 2900 3481 
Q 2900 3844 2670 4047 
Q 2441 4250 2034 4250 
Q 1625 4250 1398 4047 
Q 1172 3844 1172 3481 
z
" transform="scale(0.015625)"/>
       </defs>
       <use xlink:href="#DejaVuSans-38"/>
       <use xlink:href="#DejaVuSans-30" x="63.623047"/>
      </g>
     </g>
    </g>
    <g id="xtick_6">
     <g id="line2d_6">
      <path d="M 386.688551 276.446812 
L 386.688551 10.334812 
" clip-path="url(#pae39e48791)" style="fill: none; stroke: #ffffff; stroke-linecap: round"/>
     </g>
     <g id="text_6">
      <!-- 100 -->
      <g style="fill: #262626" transform="translate(376.190426 294.305093) scale(0.11 -0.11)">
       <defs>
        <path id="DejaVuSans-31" d="M 794 531 
L 1825 531 
L 1825 4091 
L 703 3866 
L 703 4441 
L 1819 4666 
L 2450 4666 
L 2450 531 
L 3481 531 
L 3481 0 
L 794 0 
L 794 531 
z
" transform="scale(0.015625)"/>
       </defs>
       <use xlink:href="#DejaVuSans-31"/>
       <use xlink:href="#DejaVuSans-30" x="63.623047"/>
       <use xlink:href="#DejaVuSans-30" x="127.246094"/>
      </g>
     </g>
    </g>
    <g id="text_7">
     <!-- hours-per-week -->
     <g style="fill: #262626" transform="translate(188.818125 309.710874) scale(0.12 -0.12)">
      <defs>
       <path id="DejaVuSans-68" d="M 3513 2113 
L 3513 0 
L 2938 0 
L 2938 2094 
Q 2938 2591 2744 2837 
Q 2550 3084 2163 3084 
Q 1697 3084 1428 2787 
Q 1159 2491 1159 1978 
L 1159 0 
L 581 0 
L 581 4863 
L 1159 4863 
L 1159 2956 
Q 1366 3272 1645 3428 
Q 1925 3584 2291 3584 
Q 2894 3584 3203 3211 
Q 3513 2838 3513 2113 
z
" transform="scale(0.015625)"/>
       <path id="DejaVuSans-6f" d="M 1959 3097 
Q 1497 3097 1228 2736 
Q 959 2375 959 1747 
Q 959 1119 1226 758 
Q 1494 397 1959 397 
Q 2419 397 2687 759 
Q 2956 1122 2956 1747 
Q 2956 2369 2687 2733 
Q 2419 3097 1959 3097 
z
M 1959 3584 
Q 2709 3584 3137 3096 
Q 3566 2609 3566 1747 
Q 3566 888 3137 398 
Q 2709 -91 1959 -91 
Q 1206 -91 779 398 
Q 353 888 353 1747 
Q 353 2609 779 3096 
Q 1206 3584 1959 3584 
z
" transform="scale(0.015625)"/>
       <path id="DejaVuSans-75" d="M 544 1381 
L 544 3500 
L 1119 3500 
L 1119 1403 
Q 1119 906 1312 657 
Q 1506 409 1894 409 
Q 2359 409 2629 706 
Q 2900 1003 2900 1516 
L 2900 3500 
L 3475 3500 
L 3475 0 
L 2900 0 
L 2900 538 
Q 2691 219 2414 64 
Q 2138 -91 1772 -91 
Q 1169 -91 856 284 
Q 544 659 544 1381 
z
M 1991 3584 
L 1991 3584 
z
" transform="scale(0.015625)"/>
       <path id="DejaVuSans-72" d="M 2631 2963 
Q 2534 3019 2420 3045 
Q 2306 3072 2169 3072 
Q 1681 3072 1420 2755 
Q 1159 2438 1159 1844 
L 1159 0 
L 581 0 
L 581 3500 
L 1159 3500 
L 1159 2956 
Q 1341 3275 1631 3429 
Q 1922 3584 2338 3584 
Q 2397 3584 2469 3576 
Q 2541 3569 2628 3553 
L 2631 2963 
z
" transform="scale(0.015625)"/>
       <path id="DejaVuSans-73" d="M 2834 3397 
L 2834 2853 
Q 2591 2978 2328 3040 
Q 2066 3103 1784 3103 
Q 1356 3103 1142 2972 
Q 928 2841 928 2578 
Q 928 2378 1081 2264 
Q 1234 2150 1697 2047 
L 1894 2003 
Q 2506 1872 2764 1633 
Q 3022 1394 3022 966 
Q 3022 478 2636 193 
Q 2250 -91 1575 -91 
Q 1294 -91 989 -36 
Q 684 19 347 128 
L 347 722 
Q 666 556 975 473 
Q 1284 391 1588 391 
Q 1994 391 2212 530 
Q 2431 669 2431 922 
Q 2431 1156 2273 1281 
Q 2116 1406 1581 1522 
L 1381 1569 
Q 847 1681 609 1914 
Q 372 2147 372 2553 
Q 372 3047 722 3315 
Q 1072 3584 1716 3584 
Q 2034 3584 2315 3537 
Q 2597 3491 2834 3397 
z
" transform="scale(0.015625)"/>
       <path id="DejaVuSans-2d" d="M 313 2009 
L 1997 2009 
L 1997 1497 
L 313 1497 
L 313 2009 
z
" transform="scale(0.015625)"/>
       <path id="DejaVuSans-70" d="M 1159 525 
L 1159 -1331 
L 581 -1331 
L 581 3500 
L 1159 3500 
L 1159 2969 
Q 1341 3281 1617 3432 
Q 1894 3584 2278 3584 
Q 2916 3584 3314 3078 
Q 3713 2572 3713 1747 
Q 3713 922 3314 415 
Q 2916 -91 2278 -91 
Q 1894 -91 1617 61 
Q 1341 213 1159 525 
z
M 3116 1747 
Q 3116 2381 2855 2742 
Q 2594 3103 2138 3103 
Q 1681 3103 1420 2742 
Q 1159 2381 1159 1747 
Q 1159 1113 1420 752 
Q 1681 391 2138 391 
Q 2594 391 2855 752 
Q 3116 1113 3116 1747 
z
" transform="scale(0.015625)"/>
       <path id="DejaVuSans-65" d="M 3597 1894 
L 3597 1613 
L 953 1613 
Q 991 1019 1311 708 
Q 1631 397 2203 397 
Q 2534 397 2845 478 
Q 3156 559 3463 722 
L 3463 178 
Q 3153 47 2828 -22 
Q 2503 -91 2169 -91 
Q 1331 -91 842 396 
Q 353 884 353 1716 
Q 353 2575 817 3079 
Q 1281 3584 2069 3584 
Q 2775 3584 3186 3129 
Q 3597 2675 3597 1894 
z
M 3022 2063 
Q 3016 2534 2758 2815 
Q 2500 3097 2075 3097 
Q 1594 3097 1305 2825 
Q 1016 2553 972 2059 
L 3022 2063 
z
" transform="scale(0.015625)"/>
       <path id="DejaVuSans-77" d="M 269 3500 
L 844 3500 
L 1563 769 
L 2278 3500 
L 2956 3500 
L 3675 769 
L 4391 3500 
L 4966 3500 
L 4050 0 
L 3372 0 
L 2619 2869 
L 1863 0 
L 1184 0 
L 269 3500 
z
" transform="scale(0.015625)"/>
       <path id="DejaVuSans-6b" d="M 581 4863 
L 1159 4863 
L 1159 1991 
L 2875 3500 
L 3609 3500 
L 1753 1863 
L 3688 0 
L 2938 0 
L 1159 1709 
L 1159 0 
L 581 0 
L 581 4863 
z
" transform="scale(0.015625)"/>
      </defs>
      <use xlink:href="#DejaVuSans-68"/>
      <use xlink:href="#DejaVuSans-6f" x="63.378906"/>
      <use xlink:href="#DejaVuSans-75" x="124.560547"/>
      <use xlink:href="#DejaVuSans-72" x="187.939453"/>
      <use xlink:href="#DejaVuSans-73" x="229.052734"/>
      <use xlink:href="#DejaVuSans-2d" x="281.152344"/>
      <use xlink:href="#DejaVuSans-70" x="317.236328"/>
      <use xlink:href="#DejaVuSans-65" x="380.712891"/>
      <use xlink:href="#DejaVuSans-72" x="442.236328"/>
      <use xlink:href="#DejaVuSans-2d" x="476.974609"/>
      <use xlink:href="#DejaVuSans-77" x="513.058594"/>
      <use xlink:href="#DejaVuSans-65" x="594.845703"/>
      <use xlink:href="#DejaVuSans-65" x="656.369141"/>
      <use xlink:href="#DejaVuSans-6b" x="717.892578"/>
     </g>
    </g>
   </g>
   <g id="matplotlib.axis_2">
    <g id="ytick_1">
     <g id="line2d_7">
      <path d="M 56.805937 276.446812 
L 413.925938 276.446812 
" clip-path="url(#pae39e48791)" style="fill: none; stroke: #ffffff; stroke-linecap: round"/>
     </g>
     <g id="text_8">
      <!-- 0.00 -->
      <g style="fill: #262626" transform="translate(22.81375 280.625952) scale(0.11 -0.11)">
       <defs>
        <path id="DejaVuSans-2e" d="M 684 794 
L 1344 794 
L 1344 0 
L 684 0 
L 684 794 
z
" transform="scale(0.015625)"/>
       </defs>
       <use xlink:href="#DejaVuSans-30"/>
       <use xlink:href="#DejaVuSans-2e" x="63.623047"/>
       <use xlink:href="#DejaVuSans-30" x="95.410156"/>
       <use xlink:href="#DejaVuSans-30" x="159.033203"/>
      </g>
     </g>
    </g>
    <g id="ytick_2">
     <g id="line2d_8">
      <path d="M 56.805937 223.433277 
L 413.925938 223.433277 
" clip-path="url(#pae39e48791)" style="fill: none; stroke: #ffffff; stroke-linecap: round"/>
     </g>
     <g id="text_9">
      <!-- 0.05 -->
      <g style="fill: #262626" transform="translate(22.81375 227.612418) scale(0.11 -0.11)">
       <defs>
        <path id="DejaVuSans-35" d="M 691 4666 
L 3169 4666 
L 3169 4134 
L 1269 4134 
L 1269 2991 
Q 1406 3038 1543 3061 
Q 1681 3084 1819 3084 
Q 2600 3084 3056 2656 
Q 3513 2228 3513 1497 
Q 3513 744 3044 326 
Q 2575 -91 1722 -91 
Q 1428 -91 1123 -41 
Q 819 9 494 109 
L 494 744 
Q 775 591 1075 516 
Q 1375 441 1709 441 
Q 2250 441 2565 725 
Q 2881 1009 2881 1497 
Q 2881 1984 2565 2268 
Q 2250 2553 1709 2553 
Q 1456 2553 1204 2497 
Q 953 2441 691 2322 
L 691 4666 
z
" transform="scale(0.015625)"/>
       </defs>
       <use xlink:href="#DejaVuSans-30"/>
       <use xlink:href="#DejaVuSans-2e" x="63.623047"/>
       <use xlink:href="#DejaVuSans-30" x="95.410156"/>
       <use xlink:href="#DejaVuSans-35" x="159.033203"/>
      </g>
     </g>
    </g>
    <g id="ytick_3">
     <g id="line2d_9">
      <path d="M 56.805937 170.419743 
L 413.925938 170.419743 
" clip-path="url(#pae39e48791)" style="fill: none; stroke: #ffffff; stroke-linecap: round"/>
     </g>
     <g id="text_10">
      <!-- 0.10 -->
      <g style="fill: #262626" transform="translate(22.81375 174.598884) scale(0.11 -0.11)">
       <use xlink:href="#DejaVuSans-30"/>
       <use xlink:href="#DejaVuSans-2e" x="63.623047"/>
       <use xlink:href="#DejaVuSans-31" x="95.410156"/>
       <use xlink:href="#DejaVuSans-30" x="159.033203"/>
      </g>
     </g>
    </g>
    <g id="ytick_4">
     <g id="line2d_10">
      <path d="M 56.805937 117.406209 
L 413.925938 117.406209 
" clip-path="url(#pae39e48791)" style="fill: none; stroke: #ffffff; stroke-linecap: round"/>
     </g>
     <g id="text_11">
      <!-- 0.15 -->
      <g style="fill: #262626" transform="translate(22.81375 121.58535) scale(0.11 -0.11)">
       <use xlink:href="#DejaVuSans-30"/>
       <use xlink:href="#DejaVuSans-2e" x="63.623047"/>
       <use xlink:href="#DejaVuSans-31" x="95.410156"/>
       <use xlink:href="#DejaVuSans-35" x="159.033203"/>
      </g>
     </g>
    </g>
    <g id="ytick_5">
     <g id="line2d_11">
      <path d="M 56.805937 64.392675 
L 413.925938 64.392675 
" clip-path="url(#pae39e48791)" style="fill: none; stroke: #ffffff; stroke-linecap: round"/>
     </g>
     <g id="text_12">
      <!-- 0.20 -->
      <g style="fill: #262626" transform="translate(22.81375 68.571815) scale(0.11 -0.11)">
       <use xlink:href="#DejaVuSans-30"/>
       <use xlink:href="#DejaVuSans-2e" x="63.623047"/>
       <use xlink:href="#DejaVuSans-32" x="95.410156"/>
       <use xlink:href="#DejaVuSans-30" x="159.033203"/>
      </g>
     </g>
    </g>
    <g id="ytick_6">
     <g id="line2d_12">
      <path d="M 56.805937 11.379141 
L 413.925938 11.379141 
" clip-path="url(#pae39e48791)" style="fill: none; stroke: #ffffff; stroke-linecap: round"/>
     </g>
     <g id="text_13">
      <!-- 0.25 -->
      <g style="fill: #262626" transform="translate(22.81375 15.558281) scale(0.11 -0.11)">
       <use xlink:href="#DejaVuSans-30"/>
       <use xlink:href="#DejaVuSans-2e" x="63.623047"/>
       <use xlink:href="#DejaVuSans-32" x="95.410156"/>
       <use xlink:href="#DejaVuSans-35" x="159.033203"/>
      </g>
     </g>
    </g>
    <g id="text_14">
     <!-- Density -->
     <g style="fill: #262626" transform="translate(16.318125 166.201124) rotate(-90) scale(0.12 -0.12)">
      <defs>
       <path id="DejaVuSans-44" d="M 1259 4147 
L 1259 519 
L 2022 519 
Q 2988 519 3436 956 
Q 3884 1394 3884 2338 
Q 3884 3275 3436 3711 
Q 2988 4147 2022 4147 
L 1259 4147 
z
M 628 4666 
L 1925 4666 
Q 3281 4666 3915 4102 
Q 4550 3538 4550 2338 
Q 4550 1131 3912 565 
Q 3275 0 1925 0 
L 628 0 
L 628 4666 
z
" transform="scale(0.015625)"/>
       <path id="DejaVuSans-6e" d="M 3513 2113 
L 3513 0 
L 2938 0 
L 2938 2094 
Q 2938 2591 2744 2837 
Q 2550 3084 2163 3084 
Q 1697 3084 1428 2787 
Q 1159 2491 1159 1978 
L 1159 0 
L 581 0 
L 581 3500 
L 1159 3500 
L 1159 2956 
Q 1366 3272 1645 3428 
Q 1925 3584 2291 3584 
Q 2894 3584 3203 3211 
Q 3513 2838 3513 2113 
z
" transform="scale(0.015625)"/>
       <path id="DejaVuSans-69" d="M 603 3500 
L 1178 3500 
L 1178 0 
L 603 0 
L 603 3500 
z
M 603 4863 
L 1178 4863 
L 1178 4134 
L 603 4134 
L 603 4863 
z
" transform="scale(0.015625)"/>
       <path id="DejaVuSans-74" d="M 1172 4494 
L 1172 3500 
L 2356 3500 
L 2356 3053 
L 1172 3053 
L 1172 1153 
Q 1172 725 1289 603 
Q 1406 481 1766 481 
L 2356 481 
L 2356 0 
L 1766 0 
Q 1100 0 847 248 
Q 594 497 594 1153 
L 594 3053 
L 172 3053 
L 172 3500 
L 594 3500 
L 594 4494 
L 1172 4494 
z
" transform="scale(0.015625)"/>
       <path id="DejaVuSans-79" d="M 2059 -325 
Q 1816 -950 1584 -1140 
Q 1353 -1331 966 -1331 
L 506 -1331 
L 506 -850 
L 844 -850 
Q 1081 -850 1212 -737 
Q 1344 -625 1503 -206 
L 1606 56 
L 191 3500 
L 800 3500 
L 1894 763 
L 2988 3500 
L 3597 3500 
L 2059 -325 
z
" transform="scale(0.015625)"/>
      </defs>
      <use xlink:href="#DejaVuSans-44"/>
      <use xlink:href="#DejaVuSans-65" x="77.001953"/>
      <use xlink:href="#DejaVuSans-6e" x="138.525391"/>
      <use xlink:href="#DejaVuSans-73" x="201.904297"/>
      <use xlink:href="#DejaVuSans-69" x="254.003906"/>
      <use xlink:href="#DejaVuSans-74" x="281.787109"/>
      <use xlink:href="#DejaVuSans-79" x="320.996094"/>
     </g>
    </g>
   </g>
   <g id="patch_3">
    <path d="M 87.069776 276.446812 
L 93.001622 276.446812 
L 93.001622 275.582906 
L 87.069776 275.582906 
z
" clip-path="url(#pae39e48791)" style="fill: #4c72b0; opacity: 0.4; stroke: #ffffff; stroke-linejoin: miter"/>
   </g>
   <g id="patch_4">
    <path d="M 93.001622 276.446812 
L 98.933469 276.446812 
L 98.933469 274.90175 
L 93.001622 274.90175 
z
" clip-path="url(#pae39e48791)" style="fill: #4c72b0; opacity: 0.4; stroke: #ffffff; stroke-linejoin: miter"/>
   </g>
   <g id="patch_5">
    <path d="M 98.933469 276.446812 
L 104.865315 276.446812 
L 104.865315 274.386729 
L 98.933469 274.386729 
z
" clip-path="url(#pae39e48791)" style="fill: #4c72b0; opacity: 0.4; stroke: #ffffff; stroke-linejoin: miter"/>
   </g>
   <g id="patch_6">
    <path d="M 104.865315 276.446812 
L 110.797162 276.446812 
L 110.797162 273.605891 
L 104.865315 273.605891 
z
" clip-path="url(#pae39e48791)" style="fill: #4c72b0; opacity: 0.4; stroke: #ffffff; stroke-linejoin: miter"/>
   </g>
   <g id="patch_7">
    <path d="M 110.797162 276.446812 
L 116.729008 276.446812 
L 116.729008 271.529195 
L 110.797162 271.529195 
z
" clip-path="url(#pae39e48791)" style="fill: #4c72b0; opacity: 0.4; stroke: #ffffff; stroke-linejoin: miter"/>
   </g>
   <g id="patch_8">
    <path d="M 116.729008 276.446812 
L 122.660855 276.446812 
L 122.660855 273.389915 
L 116.729008 273.389915 
z
" clip-path="url(#pae39e48791)" style="fill: #4c72b0; opacity: 0.4; stroke: #ffffff; stroke-linejoin: miter"/>
   </g>
   <g id="patch_9">
    <path d="M 122.660855 276.446812 
L 128.592701 276.446812 
L 128.592701 275.499838 
L 122.660855 275.499838 
z
" clip-path="url(#pae39e48791)" style="fill: #4c72b0; opacity: 0.4; stroke: #ffffff; stroke-linejoin: miter"/>
   </g>
   <g id="patch_10">
    <path d="M 128.592701 276.446812 
L 134.524548 276.446812 
L 134.524548 266.329148 
L 128.592701 266.329148 
z
" clip-path="url(#pae39e48791)" style="fill: #4c72b0; opacity: 0.4; stroke: #ffffff; stroke-linejoin: miter"/>
   </g>
   <g id="patch_11">
    <path d="M 134.524548 276.446812 
L 140.456394 276.446812 
L 140.456394 274.719 
L 134.524548 274.719 
z
" clip-path="url(#pae39e48791)" style="fill: #4c72b0; opacity: 0.4; stroke: #ffffff; stroke-linejoin: miter"/>
   </g>
   <g id="patch_12">
    <path d="M 140.456394 276.446812 
L 146.388241 276.446812 
L 146.388241 255.879213 
L 140.456394 255.879213 
z
" clip-path="url(#pae39e48791)" style="fill: #4c72b0; opacity: 0.4; stroke: #ffffff; stroke-linejoin: miter"/>
   </g>
   <g id="patch_13">
    <path d="M 146.388241 276.446812 
L 152.320087 276.446812 
L 152.320087 275.317089 
L 146.388241 275.317089 
z
" clip-path="url(#pae39e48791)" style="fill: #4c72b0; opacity: 0.4; stroke: #ffffff; stroke-linejoin: miter"/>
   </g>
   <g id="patch_14">
    <path d="M 152.320087 276.446812 
L 158.251933 276.446812 
L 158.251933 271.911307 
L 152.320087 271.911307 
z
" clip-path="url(#pae39e48791)" style="fill: #4c72b0; opacity: 0.4; stroke: #ffffff; stroke-linejoin: miter"/>
   </g>
   <g id="patch_15">
    <path d="M 158.251933 276.446812 
L 164.18378 276.446812 
L 164.18378 264.750859 
L 158.251933 264.750859 
z
" clip-path="url(#pae39e48791)" style="fill: #4c72b0; opacity: 0.4; stroke: #ffffff; stroke-linejoin: miter"/>
   </g>
   <g id="patch_16">
    <path d="M 164.18378 276.446812 
L 170.115626 276.446812 
L 170.115626 274.519638 
L 164.18378 274.519638 
z
" clip-path="url(#pae39e48791)" style="fill: #4c72b0; opacity: 0.4; stroke: #ffffff; stroke-linejoin: miter"/>
   </g>
   <g id="patch_17">
    <path d="M 170.115626 276.446812 
L 176.047473 276.446812 
L 176.047473 257.241526 
L 170.115626 257.241526 
z
" clip-path="url(#pae39e48791)" style="fill: #4c72b0; opacity: 0.4; stroke: #ffffff; stroke-linejoin: miter"/>
   </g>
   <g id="patch_18">
    <path d="M 176.047473 276.446812 
L 181.979319 276.446812 
L 181.979319 271.944534 
L 176.047473 271.944534 
z
" clip-path="url(#pae39e48791)" style="fill: #4c72b0; opacity: 0.4; stroke: #ffffff; stroke-linejoin: miter"/>
   </g>
   <g id="patch_19">
    <path d="M 181.979319 276.446812 
L 187.911166 276.446812 
L 187.911166 275.333703 
L 181.979319 275.333703 
z
" clip-path="url(#pae39e48791)" style="fill: #4c72b0; opacity: 0.4; stroke: #ffffff; stroke-linejoin: miter"/>
   </g>
   <g id="patch_20">
    <path d="M 187.911166 276.446812 
L 193.843012 276.446812 
L 193.843012 251.244027 
L 187.911166 251.244027 
z
" clip-path="url(#pae39e48791)" style="fill: #4c72b0; opacity: 0.4; stroke: #ffffff; stroke-linejoin: miter"/>
   </g>
   <g id="patch_21">
    <path d="M 193.843012 276.446812 
L 199.774859 276.446812 
L 199.774859 266.063331 
L 193.843012 266.063331 
z
" clip-path="url(#pae39e48791)" style="fill: #4c72b0; opacity: 0.4; stroke: #ffffff; stroke-linejoin: miter"/>
   </g>
   <g id="patch_22">
    <path d="M 199.774859 276.446812 
L 205.706705 276.446812 
L 205.706705 23.006812 
L 199.774859 23.006812 
z
" clip-path="url(#pae39e48791)" style="fill: #4c72b0; opacity: 0.4; stroke: #ffffff; stroke-linejoin: miter"/>
   </g>
   <g id="patch_23">
    <path d="M 205.706705 276.446812 
L 211.638552 276.446812 
L 211.638552 272.210351 
L 205.706705 272.210351 
z
" clip-path="url(#pae39e48791)" style="fill: #4c72b0; opacity: 0.4; stroke: #ffffff; stroke-linejoin: miter"/>
   </g>
   <g id="patch_24">
    <path d="M 211.638552 276.446812 
L 217.570398 276.446812 
L 217.570398 270.416086 
L 211.638552 270.416086 
z
" clip-path="url(#pae39e48791)" style="fill: #4c72b0; opacity: 0.4; stroke: #ffffff; stroke-linejoin: miter"/>
   </g>
   <g id="patch_25">
    <path d="M 217.570398 276.446812 
L 223.502245 276.446812 
L 223.502245 244.781349 
L 217.570398 244.781349 
z
" clip-path="url(#pae39e48791)" style="fill: #4c72b0; opacity: 0.4; stroke: #ffffff; stroke-linejoin: miter"/>
   </g>
   <g id="patch_26">
    <path d="M 223.502245 276.446812 
L 229.434091 276.446812 
L 229.434091 267.043531 
L 223.502245 267.043531 
z
" clip-path="url(#pae39e48791)" style="fill: #4c72b0; opacity: 0.4; stroke: #ffffff; stroke-linejoin: miter"/>
   </g>
   <g id="patch_27">
    <path d="M 229.434091 276.446812 
L 235.365937 276.446812 
L 235.365937 275.965018 
L 229.434091 275.965018 
z
" clip-path="url(#pae39e48791)" style="fill: #4c72b0; opacity: 0.4; stroke: #ffffff; stroke-linejoin: miter"/>
   </g>
   <g id="patch_28">
    <path d="M 235.365938 276.446812 
L 241.297784 276.446812 
L 241.297784 229.397183 
L 235.365938 229.397183 
z
" clip-path="url(#pae39e48791)" style="fill: #4c72b0; opacity: 0.4; stroke: #ffffff; stroke-linejoin: miter"/>
   </g>
   <g id="patch_29">
    <path d="M 241.297784 276.446812 
L 247.22963 276.446812 
L 247.22963 273.7388 
L 241.297784 273.7388 
z
" clip-path="url(#pae39e48791)" style="fill: #4c72b0; opacity: 0.4; stroke: #ffffff; stroke-linejoin: miter"/>
   </g>
   <g id="patch_30">
    <path d="M 247.22963 276.446812 
L 253.161477 276.446812 
L 253.161477 264.235838 
L 247.22963 264.235838 
z
" clip-path="url(#pae39e48791)" style="fill: #4c72b0; opacity: 0.4; stroke: #ffffff; stroke-linejoin: miter"/>
   </g>
   <g id="patch_31">
    <path d="M 253.161477 276.446812 
L 259.093323 276.446812 
L 259.093323 274.552865 
L 253.161477 274.552865 
z
" clip-path="url(#pae39e48791)" style="fill: #4c72b0; opacity: 0.4; stroke: #ffffff; stroke-linejoin: miter"/>
   </g>
   <g id="patch_32">
    <path d="M 259.093323 276.446812 
L 265.02517 276.446812 
L 265.02517 275.898564 
L 259.093323 275.898564 
z
" clip-path="url(#pae39e48791)" style="fill: #4c72b0; opacity: 0.4; stroke: #ffffff; stroke-linejoin: miter"/>
   </g>
   <g id="patch_33">
    <path d="M 265.02517 276.446812 
L 270.957016 276.446812 
L 270.957016 251.90857 
L 265.02517 251.90857 
z
" clip-path="url(#pae39e48791)" style="fill: #4c72b0; opacity: 0.4; stroke: #ffffff; stroke-linejoin: miter"/>
   </g>
   <g id="patch_34">
    <path d="M 270.957016 276.446812 
L 276.888863 276.446812 
L 276.888863 275.981632 
L 270.957016 275.981632 
z
" clip-path="url(#pae39e48791)" style="fill: #4c72b0; opacity: 0.4; stroke: #ffffff; stroke-linejoin: miter"/>
   </g>
   <g id="patch_35">
    <path d="M 276.888863 276.446812 
L 282.820709 276.446812 
L 282.820709 272.160511 
L 276.888863 272.160511 
z
" clip-path="url(#pae39e48791)" style="fill: #4c72b0; opacity: 0.4; stroke: #ffffff; stroke-linejoin: miter"/>
   </g>
   <g id="patch_36">
    <path d="M 282.820709 276.446812 
L 288.752556 276.446812 
L 288.752556 276.097927 
L 282.820709 276.097927 
z
" clip-path="url(#pae39e48791)" style="fill: #4c72b0; opacity: 0.4; stroke: #ffffff; stroke-linejoin: miter"/>
   </g>
   <g id="patch_37">
    <path d="M 288.752556 276.446812 
L 294.684402 276.446812 
L 294.684402 276.247449 
L 288.752556 276.247449 
z
" clip-path="url(#pae39e48791)" style="fill: #4c72b0; opacity: 0.4; stroke: #ffffff; stroke-linejoin: miter"/>
   </g>
   <g id="patch_38">
    <path d="M 294.684402 276.446812 
L 300.616249 276.446812 
L 300.616249 271.612263 
L 294.684402 271.612263 
z
" clip-path="url(#pae39e48791)" style="fill: #4c72b0; opacity: 0.4; stroke: #ffffff; stroke-linejoin: miter"/>
   </g>
   <g id="patch_39">
    <path d="M 300.616249 276.446812 
L 306.548095 276.446812 
L 306.548095 275.234021 
L 300.616249 275.234021 
z
" clip-path="url(#pae39e48791)" style="fill: #4c72b0; opacity: 0.4; stroke: #ffffff; stroke-linejoin: miter"/>
   </g>
   <g id="patch_40">
    <path d="M 306.548095 276.446812 
L 312.479942 276.446812 
L 312.479942 275.333703 
L 306.548095 275.333703 
z
" clip-path="url(#pae39e48791)" style="fill: #4c72b0; opacity: 0.4; stroke: #ffffff; stroke-linejoin: miter"/>
   </g>
   <g id="patch_41">
    <path d="M 312.479942 276.446812 
L 318.411788 276.446812 
L 318.411788 276.29729 
L 312.479942 276.29729 
z
" clip-path="url(#pae39e48791)" style="fill: #4c72b0; opacity: 0.4; stroke: #ffffff; stroke-linejoin: miter"/>
   </g>
   <g id="patch_42">
    <path d="M 318.411788 276.446812 
L 324.343634 276.446812 
L 324.343634 276.313903 
L 318.411788 276.313903 
z
" clip-path="url(#pae39e48791)" style="fill: #4c72b0; opacity: 0.4; stroke: #ffffff; stroke-linejoin: miter"/>
   </g>
   <g id="patch_43">
    <path d="M 324.343634 276.446812 
L 330.275481 276.446812 
L 330.275481 274.187366 
L 324.343634 274.187366 
z
" clip-path="url(#pae39e48791)" style="fill: #4c72b0; opacity: 0.4; stroke: #ffffff; stroke-linejoin: miter"/>
   </g>
   <g id="patch_44">
    <path d="M 330.275481 276.446812 
L 336.207327 276.446812 
L 336.207327 276.430198 
L 330.275481 276.430198 
z
" clip-path="url(#pae39e48791)" style="fill: #4c72b0; opacity: 0.4; stroke: #ffffff; stroke-linejoin: miter"/>
   </g>
   <g id="patch_45">
    <path d="M 336.207327 276.446812 
L 342.139174 276.446812 
L 342.139174 275.483225 
L 336.207327 275.483225 
z
" clip-path="url(#pae39e48791)" style="fill: #4c72b0; opacity: 0.4; stroke: #ffffff; stroke-linejoin: miter"/>
   </g>
   <g id="patch_46">
    <path d="M 342.139174 276.446812 
L 348.07102 276.446812 
L 348.07102 276.396971 
L 342.139174 276.396971 
z
" clip-path="url(#pae39e48791)" style="fill: #4c72b0; opacity: 0.4; stroke: #ffffff; stroke-linejoin: miter"/>
   </g>
   <g id="patch_47">
    <path d="M 348.07102 276.446812 
L 354.002867 276.446812 
L 354.002867 276.380357 
L 348.07102 276.380357 
z
" clip-path="url(#pae39e48791)" style="fill: #4c72b0; opacity: 0.4; stroke: #ffffff; stroke-linejoin: miter"/>
   </g>
   <g id="patch_48">
    <path d="M 354.002867 276.446812 
L 359.934713 276.446812 
L 359.934713 275.915177 
L 354.002867 275.915177 
z
" clip-path="url(#pae39e48791)" style="fill: #4c72b0; opacity: 0.4; stroke: #ffffff; stroke-linejoin: miter"/>
   </g>
   <g id="patch_49">
    <path d="M 359.934713 276.446812 
L 365.86656 276.446812 
L 365.86656 276.430198 
L 359.934713 276.430198 
z
" clip-path="url(#pae39e48791)" style="fill: #4c72b0; opacity: 0.4; stroke: #ffffff; stroke-linejoin: miter"/>
   </g>
   <g id="patch_50">
    <path d="M 365.86656 276.446812 
L 371.798406 276.446812 
L 371.798406 276.396971 
L 365.86656 276.396971 
z
" clip-path="url(#pae39e48791)" style="fill: #4c72b0; opacity: 0.4; stroke: #ffffff; stroke-linejoin: miter"/>
   </g>
   <g id="patch_51">
    <path d="M 371.798406 276.446812 
L 377.730253 276.446812 
L 377.730253 276.330517 
L 371.798406 276.330517 
z
" clip-path="url(#pae39e48791)" style="fill: #4c72b0; opacity: 0.4; stroke: #ffffff; stroke-linejoin: miter"/>
   </g>
   <g id="patch_52">
    <path d="M 377.730253 276.446812 
L 383.662099 276.446812 
L 383.662099 274.851909 
L 377.730253 274.851909 
z
" clip-path="url(#pae39e48791)" style="fill: #4c72b0; opacity: 0.4; stroke: #ffffff; stroke-linejoin: miter"/>
   </g>
   <g id="line2d_13">
    <path d="M 73.038665 276.444561 
L 79.564384 276.373275 
L 84.458674 276.089954 
L 92.615823 275.198888 
L 97.510113 274.762648 
L 104.035832 274.237174 
L 107.298692 273.711283 
L 112.192982 272.80977 
L 113.824412 272.66049 
L 115.455842 272.644213 
L 120.350131 272.980028 
L 121.981561 272.920541 
L 123.612991 272.637882 
L 126.875851 271.541518 
L 128.507281 271.026337 
L 130.13871 270.768889 
L 131.77014 270.821485 
L 135.033 271.174134 
L 136.66443 270.8632 
L 138.29586 269.92683 
L 139.92729 268.44574 
L 141.55872 266.808071 
L 143.190149 265.578338 
L 144.821579 265.233339 
L 146.453009 265.904139 
L 149.715869 268.80677 
L 151.347299 269.875779 
L 152.978729 270.18352 
L 154.610159 269.788149 
L 156.241588 269.051688 
L 157.873018 268.451735 
L 159.504448 268.35919 
L 161.135878 268.874504 
L 164.398738 270.694951 
L 166.030168 271.141814 
L 167.661598 270.835039 
L 169.293027 269.745373 
L 172.555887 266.529603 
L 174.187317 265.434887 
L 175.818747 265.197271 
L 177.450177 265.79333 
L 180.713037 267.789964 
L 182.344467 268.105314 
L 183.975896 267.515096 
L 185.607326 266.094913 
L 188.870186 262.472854 
L 192.133046 259.500089 
L 193.764476 256.531645 
L 195.395906 250.009043 
L 197.027335 237.732889 
L 198.658765 218.674663 
L 201.921625 169.567727 
L 203.553055 151.057483 
L 205.184485 144.8875 
L 206.815915 153.259511 
L 208.447345 173.293734 
L 211.710204 222.160435 
L 213.341634 239.695887 
L 214.973064 250.021359 
L 216.604494 254.594823 
L 218.235924 255.968848 
L 219.867354 256.464266 
L 221.498784 257.411768 
L 224.761643 260.588923 
L 226.393073 261.269956 
L 228.024503 260.395398 
L 229.655933 257.927475 
L 231.287363 254.529812 
L 232.918793 251.388962 
L 234.550223 249.780495 
L 236.181652 250.515208 
L 237.813082 253.548471 
L 241.075942 262.631405 
L 242.707372 266.335098 
L 244.338802 268.585607 
L 245.970232 269.45538 
L 247.601662 269.437349 
L 249.233091 269.164314 
L 250.864521 269.1419 
L 252.495951 269.566621 
L 254.127381 270.279094 
L 255.758811 270.863412 
L 257.390241 270.849918 
L 259.021671 269.945936 
L 260.653101 268.214236 
L 262.28453 266.120956 
L 263.91596 264.395006 
L 265.54739 263.721416 
L 267.17882 264.413886 
L 268.81025 266.265925 
L 272.07311 270.969096 
L 273.70454 272.665191 
L 275.335969 273.624231 
L 276.967399 273.983313 
L 281.861689 274.099967 
L 288.387408 274.993937 
L 290.018838 274.832719 
L 294.913128 273.764844 
L 296.544558 273.659159 
L 298.175988 273.798547 
L 301.438848 274.552184 
L 304.701707 275.277884 
L 307.964567 275.607174 
L 317.753146 275.894878 
L 321.016006 275.66293 
L 324.278866 275.321659 
L 325.910296 275.251065 
L 329.173155 275.432805 
L 334.067445 275.868131 
L 352.013174 276.22844 
L 356.907463 276.156847 
L 371.590332 276.338412 
L 376.484622 276.09754 
L 383.010341 275.640089 
L 386.273201 275.785688 
L 392.798921 276.337562 
L 397.69321 276.438753 
L 397.69321 276.438753 
" clip-path="url(#pae39e48791)" style="fill: none; stroke: #4c72b0; stroke-width: 1.5; stroke-linecap: round"/>
   </g>
   <g id="patch_53">
    <path d="M 56.805937 276.446812 
L 56.805937 10.334812 
" style="fill: none; stroke: #ffffff; stroke-width: 1.25; stroke-linejoin: miter; stroke-linecap: square"/>
   </g>
   <g id="patch_54">
    <path d="M 413.925938 276.446812 
L 413.925938 10.334812 
" style="fill: none; stroke: #ffffff; stroke-width: 1.25; stroke-linejoin: miter; stroke-linecap: square"/>
   </g>
   <g id="patch_55">
    <path d="M 56.805937 276.446812 
L 413.925938 276.446812 
" style="fill: none; stroke: #ffffff; stroke-width: 1.25; stroke-linejoin: miter; stroke-linecap: square"/>
   </g>
   <g id="patch_56">
    <path d="M 56.805937 10.334812 
L 413.925938 10.334812 
" style="fill: none; stroke: #ffffff; stroke-width: 1.25; stroke-linejoin: miter; stroke-linecap: square"/>
   </g>
  </g>
 </g>
 <defs>
  <clipPath id="pae39e48791">
   <rect x="56.805937" y="10.334812" width="357.12" height="266.112"/>
  </clipPath>
 </defs>
</svg>
