<?xml version="1.0" encoding="utf-8" standalone="no"?>
<!DOCTYPE svg PUBLIC "-//W3C//DTD SVG 1.1//EN"
  "http://www.w3.org/Graphics/SVG/1.1/DTD/svg11.dtd">
<svg xmlns:xlink="http://www.w3.org/1999/xlink" width="429.66875pt" height="418.979687pt" viewBox="0 0 429.66875 418.979687" xmlns="http://www.w3.org/2000/svg" version="1.1">
 <metadata>
  <rdf:RDF xmlns:dc="http://purl.org/dc/elements/1.1/" xmlns:cc="http://creativecommons.org/ns#" xmlns:rdf="http://www.w3.org/1999/02/22-rdf-syntax-ns#">
   <cc:Work>
    <dc:type rdf:resource="http://purl.org/dc/dcmitype/StillImage"/>
    <dc:date>2023-07-18T03:00:08.136108</dc:date>
    <dc:format>image/svg+xml</dc:format>
    <dc:creator>
     <cc:Agent>
      <dc:title>Matplotlib v3.7.1, https://matplotlib.org/</dc:title>
     </cc:Agent>
    </dc:creator>
   </cc:Work>
  </rdf:RDF>
 </metadata>
 <defs>
  <style type="text/css">*{stroke-linejoin: round; stroke-linecap: butt}</style>
 </defs>
 <g id="figure_1">
  <g id="patch_1">
   <path d="M 0 418.979687 
L 429.66875 418.979687 
L 429.66875 0 
L 0 0 
z
" style="fill: #ffffff"/>
  </g>
  <g id="axes_1">
   <g id="patch_2">
    <path d="M 60.30875 376.02 
L 360.384179 376.02 
L 360.384179 70.426286 
L 60.30875 70.426286 
z
" style="fill: #eaeaf2"/>
   </g>
   <g id="matplotlib.axis_1">
    <g id="xtick_1">
     <g id="line2d_1">
      <path d="M 75.311494 376.02 
L 75.311494 70.426286 
" clip-path="url(#p34b49fb09d)" style="fill: none; stroke: #ffffff; stroke-linecap: round"/>
     </g>
     <g id="text_1">
      <!-- 0 -->
      <g style="fill: #262626" transform="translate(71.812119 393.878281) scale(0.11 -0.11)">
       <defs>
        <path id="DejaVuSans-30" d="M 2034 4250 
Q 1547 4250 1301 3770 
Q 1056 3291 1056 2328 
Q 1056 1369 1301 889 
Q 1547 409 2034 409 
Q 2525 409 2770 889 
Q 3016 1369 3016 2328 
Q 3016 3291 2770 3770 
Q 2525 4250 2034 4250 
z
M 2034 4750 
Q 2819 4750 3233 4129 
Q 3647 3509 3647 2328 
Q 3647 1150 3233 529 
Q 2819 -91 2034 -91 
Q 1250 -91 836 529 
Q 422 1150 422 2328 
Q 422 3509 836 4129 
Q 1250 4750 2034 4750 
z
" transform="scale(0.015625)"/>
       </defs>
       <use xlink:href="#DejaVuSans-30"/>
      </g>
     </g>
    </g>
    <g id="xtick_2">
     <g id="line2d_2">
      <path d="M 129.325482 376.02 
L 129.325482 70.426286 
" clip-path="url(#p34b49fb09d)" style="fill: none; stroke: #ffffff; stroke-linecap: round"/>
     </g>
     <g id="text_2">
      <!-- 20 -->
      <g style="fill: #262626" transform="translate(122.326732 393.878281) scale(0.11 -0.11)">
       <defs>
        <path id="DejaVuSans-32" d="M 1228 531 
L 3431 531 
L 3431 0 
L 469 0 
L 469 531 
Q 828 903 1448 1529 
Q 2069 2156 2228 2338 
Q 2531 2678 2651 2914 
Q 2772 3150 2772 3378 
Q 2772 3750 2511 3984 
Q 2250 4219 1831 4219 
Q 1534 4219 1204 4116 
Q 875 4013 500 3803 
L 500 4441 
Q 881 4594 1212 4672 
Q 1544 4750 1819 4750 
Q 2544 4750 2975 4387 
Q 3406 4025 3406 3419 
Q 3406 3131 3298 2873 
Q 3191 2616 2906 2266 
Q 2828 2175 2409 1742 
Q 1991 1309 1228 531 
z
" transform="scale(0.015625)"/>
       </defs>
       <use xlink:href="#DejaVuSans-32"/>
       <use xlink:href="#DejaVuSans-30" x="63.623047"/>
      </g>
     </g>
    </g>
    <g id="xtick_3">
     <g id="line2d_3">
      <path d="M 183.33947 376.02 
L 183.33947 70.426286 
" clip-path="url(#p34b49fb09d)" style="fill: none; stroke: #ffffff; stroke-linecap: round"/>
     </g>
     <g id="text_3">
      <!-- 40 -->
      <g style="fill: #262626" transform="translate(176.34072 393.878281) scale(0.11 -0.11)">
       <defs>
        <path id="DejaVuSans-34" d="M 2419 4116 
L 825 1625 
L 2419 1625 
L 2419 4116 
z
M 2253 4666 
L 3047 4666 
L 3047 1625 
L 3713 1625 
L 3713 1100 
L 3047 1100 
L 3047 0 
L 2419 0 
L 2419 1100 
L 313 1100 
L 313 1709 
L 2253 4666 
z
" transform="scale(0.015625)"/>
       </defs>
       <use xlink:href="#DejaVuSans-34"/>
       <use xlink:href="#DejaVuSans-30" x="63.623047"/>
      </g>
     </g>
    </g>
    <g id="xtick_4">
     <g id="line2d_4">
      <path d="M 237.353458 376.02 
L 237.353458 70.426286 
" clip-path="url(#p34b49fb09d)" style="fill: none; stroke: #ffffff; stroke-linecap: round"/>
     </g>
     <g id="text_4">
      <!-- 60 -->
      <g style="fill: #262626" transform="translate(230.354708 393.878281) scale(0.11 -0.11)">
       <defs>
        <path id="DejaVuSans-36" d="M 2113 2584 
Q 1688 2584 1439 2293 
Q 1191 2003 1191 1497 
Q 1191 994 1439 701 
Q 1688 409 2113 409 
Q 2538 409 2786 701 
Q 3034 994 3034 1497 
Q 3034 2003 2786 2293 
Q 2538 2584 2113 2584 
z
M 3366 4563 
L 3366 3988 
Q 3128 4100 2886 4159 
Q 2644 4219 2406 4219 
Q 1781 4219 1451 3797 
Q 1122 3375 1075 2522 
Q 1259 2794 1537 2939 
Q 1816 3084 2150 3084 
Q 2853 3084 3261 2657 
Q 3669 2231 3669 1497 
Q 3669 778 3244 343 
Q 2819 -91 2113 -91 
Q 1303 -91 875 529 
Q 447 1150 447 2328 
Q 447 3434 972 4092 
Q 1497 4750 2381 4750 
Q 2619 4750 2861 4703 
Q 3103 4656 3366 4563 
z
" transform="scale(0.015625)"/>
       </defs>
       <use xlink:href="#DejaVuSans-36"/>
       <use xlink:href="#DejaVuSans-30" x="63.623047"/>
      </g>
     </g>
    </g>
    <g id="xtick_5">
     <g id="line2d_5">
      <path d="M 291.367447 376.02 
L 291.367447 70.426286 
" clip-path="url(#p34b49fb09d)" style="fill: none; stroke: #ffffff; stroke-linecap: round"/>
     </g>
     <g id="text_5">
      <!-- 80 -->
      <g style="fill: #262626" transform="translate(284.368697 393.878281) scale(0.11 -0.11)">
       <defs>
        <path id="DejaVuSans-38" d="M 2034 2216 
Q 1584 2216 1326 1975 
Q 1069 1734 1069 1313 
Q 1069 891 1326 650 
Q 1584 409 2034 409 
Q 2484 409 2743 651 
Q 3003 894 3003 1313 
Q 3003 1734 2745 1975 
Q 2488 2216 2034 2216 
z
M 1403 2484 
Q 997 2584 770 2862 
Q 544 3141 544 3541 
Q 544 4100 942 4425 
Q 1341 4750 2034 4750 
Q 2731 4750 3128 4425 
Q 3525 4100 3525 3541 
Q 3525 3141 3298 2862 
Q 3072 2584 2669 2484 
Q 3125 2378 3379 2068 
Q 3634 1759 3634 1313 
Q 3634 634 3220 271 
Q 2806 -91 2034 -91 
Q 1263 -91 848 271 
Q 434 634 434 1313 
Q 434 1759 690 2068 
Q 947 2378 1403 2484 
z
M 1172 3481 
Q 1172 3119 1398 2916 
Q 1625 2713 2034 2713 
Q 2441 2713 2670 2916 
Q 2900 3119 2900 3481 
Q 2900 3844 2670 4047 
Q 2441 4250 2034 4250 
Q 1625 4250 1398 4047 
Q 1172 3844 1172 3481 
z
" transform="scale(0.015625)"/>
       </defs>
       <use xlink:href="#DejaVuSans-38"/>
       <use xlink:href="#DejaVuSans-30" x="63.623047"/>
      </g>
     </g>
    </g>
    <g id="xtick_6">
     <g id="line2d_6">
      <path d="M 345.381435 376.02 
L 345.381435 70.426286 
" clip-path="url(#p34b49fb09d)" style="fill: none; stroke: #ffffff; stroke-linecap: round"/>
     </g>
     <g id="text_6">
      <!-- 100 -->
      <g style="fill: #262626" transform="translate(334.88331 393.878281) scale(0.11 -0.11)">
       <defs>
        <path id="DejaVuSans-31" d="M 794 531 
L 1825 531 
L 1825 4091 
L 703 3866 
L 703 4441 
L 1819 4666 
L 2450 4666 
L 2450 531 
L 3481 531 
L 3481 0 
L 794 0 
L 794 531 
z
" transform="scale(0.015625)"/>
       </defs>
       <use xlink:href="#DejaVuSans-31"/>
       <use xlink:href="#DejaVuSans-30" x="63.623047"/>
       <use xlink:href="#DejaVuSans-30" x="127.246094"/>
      </g>
     </g>
    </g>
    <g id="text_7">
     <!-- hours-per-week -->
     <g style="fill: #262626" transform="translate(163.798652 409.284062) scale(0.12 -0.12)">
      <defs>
       <path id="DejaVuSans-68" d="M 3513 2113 
L 3513 0 
L 2938 0 
L 2938 2094 
Q 2938 2591 2744 2837 
Q 2550 3084 2163 3084 
Q 1697 3084 1428 2787 
Q 1159 2491 1159 1978 
L 1159 0 
L 581 0 
L 581 4863 
L 1159 4863 
L 1159 2956 
Q 1366 3272 1645 3428 
Q 1925 3584 2291 3584 
Q 2894 3584 3203 3211 
Q 3513 2838 3513 2113 
z
" transform="scale(0.015625)"/>
       <path id="DejaVuSans-6f" d="M 1959 3097 
Q 1497 3097 1228 2736 
Q 959 2375 959 1747 
Q 959 1119 1226 758 
Q 1494 397 1959 397 
Q 2419 397 2687 759 
Q 2956 1122 2956 1747 
Q 2956 2369 2687 2733 
Q 2419 3097 1959 3097 
z
M 1959 3584 
Q 2709 3584 3137 3096 
Q 3566 2609 3566 1747 
Q 3566 888 3137 398 
Q 2709 -91 1959 -91 
Q 1206 -91 779 398 
Q 353 888 353 1747 
Q 353 2609 779 3096 
Q 1206 3584 1959 3584 
z
" transform="scale(0.015625)"/>
       <path id="DejaVuSans-75" d="M 544 1381 
L 544 3500 
L 1119 3500 
L 1119 1403 
Q 1119 906 1312 657 
Q 1506 409 1894 409 
Q 2359 409 2629 706 
Q 2900 1003 2900 1516 
L 2900 3500 
L 3475 3500 
L 3475 0 
L 2900 0 
L 2900 538 
Q 2691 219 2414 64 
Q 2138 -91 1772 -91 
Q 1169 -91 856 284 
Q 544 659 544 1381 
z
M 1991 3584 
L 1991 3584 
z
" transform="scale(0.015625)"/>
       <path id="DejaVuSans-72" d="M 2631 2963 
Q 2534 3019 2420 3045 
Q 2306 3072 2169 3072 
Q 1681 3072 1420 2755 
Q 1159 2438 1159 1844 
L 1159 0 
L 581 0 
L 581 3500 
L 1159 3500 
L 1159 2956 
Q 1341 3275 1631 3429 
Q 1922 3584 2338 3584 
Q 2397 3584 2469 3576 
Q 2541 3569 2628 3553 
L 2631 2963 
z
" transform="scale(0.015625)"/>
       <path id="DejaVuSans-73" d="M 2834 3397 
L 2834 2853 
Q 2591 2978 2328 3040 
Q 2066 3103 1784 3103 
Q 1356 3103 1142 2972 
Q 928 2841 928 2578 
Q 928 2378 1081 2264 
Q 1234 2150 1697 2047 
L 1894 2003 
Q 2506 1872 2764 1633 
Q 3022 1394 3022 966 
Q 3022 478 2636 193 
Q 2250 -91 1575 -91 
Q 1294 -91 989 -36 
Q 684 19 347 128 
L 347 722 
Q 666 556 975 473 
Q 1284 391 1588 391 
Q 1994 391 2212 530 
Q 2431 669 2431 922 
Q 2431 1156 2273 1281 
Q 2116 1406 1581 1522 
L 1381 1569 
Q 847 1681 609 1914 
Q 372 2147 372 2553 
Q 372 3047 722 3315 
Q 1072 3584 1716 3584 
Q 2034 3584 2315 3537 
Q 2597 3491 2834 3397 
z
" transform="scale(0.015625)"/>
       <path id="DejaVuSans-2d" d="M 313 2009 
L 1997 2009 
L 1997 1497 
L 313 1497 
L 313 2009 
z
" transform="scale(0.015625)"/>
       <path id="DejaVuSans-70" d="M 1159 525 
L 1159 -1331 
L 581 -1331 
L 581 3500 
L 1159 3500 
L 1159 2969 
Q 1341 3281 1617 3432 
Q 1894 3584 2278 3584 
Q 2916 3584 3314 3078 
Q 3713 2572 3713 1747 
Q 3713 922 3314 415 
Q 2916 -91 2278 -91 
Q 1894 -91 1617 61 
Q 1341 213 1159 525 
z
M 3116 1747 
Q 3116 2381 2855 2742 
Q 2594 3103 2138 3103 
Q 1681 3103 1420 2742 
Q 1159 2381 1159 1747 
Q 1159 1113 1420 752 
Q 1681 391 2138 391 
Q 2594 391 2855 752 
Q 3116 1113 3116 1747 
z
" transform="scale(0.015625)"/>
       <path id="DejaVuSans-65" d="M 3597 1894 
L 3597 1613 
L 953 1613 
Q 991 1019 1311 708 
Q 1631 397 2203 397 
Q 2534 397 2845 478 
Q 3156 559 3463 722 
L 3463 178 
Q 3153 47 2828 -22 
Q 2503 -91 2169 -91 
Q 1331 -91 842 396 
Q 353 884 353 1716 
Q 353 2575 817 3079 
Q 1281 3584 2069 3584 
Q 2775 3584 3186 3129 
Q 3597 2675 3597 1894 
z
M 3022 2063 
Q 3016 2534 2758 2815 
Q 2500 3097 2075 3097 
Q 1594 3097 1305 2825 
Q 1016 2553 972 2059 
L 3022 2063 
z
" transform="scale(0.015625)"/>
       <path id="DejaVuSans-77" d="M 269 3500 
L 844 3500 
L 1563 769 
L 2278 3500 
L 2956 3500 
L 3675 769 
L 4391 3500 
L 4966 3500 
L 4050 0 
L 3372 0 
L 2619 2869 
L 1863 0 
L 1184 0 
L 269 3500 
z
" transform="scale(0.015625)"/>
       <path id="DejaVuSans-6b" d="M 581 4863 
L 1159 4863 
L 1159 1991 
L 2875 3500 
L 3609 3500 
L 1753 1863 
L 3688 0 
L 2938 0 
L 1159 1709 
L 1159 0 
L 581 0 
L 581 4863 
z
" transform="scale(0.015625)"/>
      </defs>
      <use xlink:href="#DejaVuSans-68"/>
      <use xlink:href="#DejaVuSans-6f" x="63.378906"/>
      <use xlink:href="#DejaVuSans-75" x="124.560547"/>
      <use xlink:href="#DejaVuSans-72" x="187.939453"/>
      <use xlink:href="#DejaVuSans-73" x="229.052734"/>
      <use xlink:href="#DejaVuSans-2d" x="281.152344"/>
      <use xlink:href="#DejaVuSans-70" x="317.236328"/>
      <use xlink:href="#DejaVuSans-65" x="380.712891"/>
      <use xlink:href="#DejaVuSans-72" x="442.236328"/>
      <use xlink:href="#DejaVuSans-2d" x="476.974609"/>
      <use xlink:href="#DejaVuSans-77" x="513.058594"/>
      <use xlink:href="#DejaVuSans-65" x="594.845703"/>
      <use xlink:href="#DejaVuSans-65" x="656.369141"/>
      <use xlink:href="#DejaVuSans-6b" x="717.892578"/>
     </g>
    </g>
   </g>
   <g id="matplotlib.axis_2">
    <g id="ytick_1">
     <g id="line2d_7">
      <path d="M 60.30875 362.354249 
L 360.384179 362.354249 
" clip-path="url(#p34b49fb09d)" style="fill: none; stroke: #ffffff; stroke-linecap: round"/>
     </g>
     <g id="text_8">
      <!-- 0 -->
      <g style="fill: #262626" transform="translate(43.81 366.53339) scale(0.11 -0.11)">
       <use xlink:href="#DejaVuSans-30"/>
      </g>
     </g>
    </g>
    <g id="ytick_2">
     <g id="line2d_8">
      <path d="M 60.30875 298.474035 
L 360.384179 298.474035 
" clip-path="url(#p34b49fb09d)" style="fill: none; stroke: #ffffff; stroke-linecap: round"/>
     </g>
     <g id="text_9">
      <!-- 1000 -->
      <g style="fill: #262626" transform="translate(22.81375 302.653176) scale(0.11 -0.11)">
       <use xlink:href="#DejaVuSans-31"/>
       <use xlink:href="#DejaVuSans-30" x="63.623047"/>
       <use xlink:href="#DejaVuSans-30" x="127.246094"/>
       <use xlink:href="#DejaVuSans-30" x="190.869141"/>
      </g>
     </g>
    </g>
    <g id="ytick_3">
     <g id="line2d_9">
      <path d="M 60.30875 234.593821 
L 360.384179 234.593821 
" clip-path="url(#p34b49fb09d)" style="fill: none; stroke: #ffffff; stroke-linecap: round"/>
     </g>
     <g id="text_10">
      <!-- 2000 -->
      <g style="fill: #262626" transform="translate(22.81375 238.772962) scale(0.11 -0.11)">
       <use xlink:href="#DejaVuSans-32"/>
       <use xlink:href="#DejaVuSans-30" x="63.623047"/>
       <use xlink:href="#DejaVuSans-30" x="127.246094"/>
       <use xlink:href="#DejaVuSans-30" x="190.869141"/>
      </g>
     </g>
    </g>
    <g id="ytick_4">
     <g id="line2d_10">
      <path d="M 60.30875 170.713607 
L 360.384179 170.713607 
" clip-path="url(#p34b49fb09d)" style="fill: none; stroke: #ffffff; stroke-linecap: round"/>
     </g>
     <g id="text_11">
      <!-- 3000 -->
      <g style="fill: #262626" transform="translate(22.81375 174.892748) scale(0.11 -0.11)">
       <defs>
        <path id="DejaVuSans-33" d="M 2597 2516 
Q 3050 2419 3304 2112 
Q 3559 1806 3559 1356 
Q 3559 666 3084 287 
Q 2609 -91 1734 -91 
Q 1441 -91 1130 -33 
Q 819 25 488 141 
L 488 750 
Q 750 597 1062 519 
Q 1375 441 1716 441 
Q 2309 441 2620 675 
Q 2931 909 2931 1356 
Q 2931 1769 2642 2001 
Q 2353 2234 1838 2234 
L 1294 2234 
L 1294 2753 
L 1863 2753 
Q 2328 2753 2575 2939 
Q 2822 3125 2822 3475 
Q 2822 3834 2567 4026 
Q 2313 4219 1838 4219 
Q 1578 4219 1281 4162 
Q 984 4106 628 3988 
L 628 4550 
Q 988 4650 1302 4700 
Q 1616 4750 1894 4750 
Q 2613 4750 3031 4423 
Q 3450 4097 3450 3541 
Q 3450 3153 3228 2886 
Q 3006 2619 2597 2516 
z
" transform="scale(0.015625)"/>
       </defs>
       <use xlink:href="#DejaVuSans-33"/>
       <use xlink:href="#DejaVuSans-30" x="63.623047"/>
       <use xlink:href="#DejaVuSans-30" x="127.246094"/>
       <use xlink:href="#DejaVuSans-30" x="190.869141"/>
      </g>
     </g>
    </g>
    <g id="ytick_5">
     <g id="line2d_11">
      <path d="M 60.30875 106.833393 
L 360.384179 106.833393 
" clip-path="url(#p34b49fb09d)" style="fill: none; stroke: #ffffff; stroke-linecap: round"/>
     </g>
     <g id="text_12">
      <!-- 4000 -->
      <g style="fill: #262626" transform="translate(22.81375 111.012533) scale(0.11 -0.11)">
       <use xlink:href="#DejaVuSans-34"/>
       <use xlink:href="#DejaVuSans-30" x="63.623047"/>
       <use xlink:href="#DejaVuSans-30" x="127.246094"/>
       <use xlink:href="#DejaVuSans-30" x="190.869141"/>
      </g>
     </g>
    </g>
    <g id="text_13">
     <!-- capital-loss -->
     <g style="fill: #262626" transform="translate(16.318125 257.125018) rotate(-90) scale(0.12 -0.12)">
      <defs>
       <path id="DejaVuSans-63" d="M 3122 3366 
L 3122 2828 
Q 2878 2963 2633 3030 
Q 2388 3097 2138 3097 
Q 1578 3097 1268 2742 
Q 959 2388 959 1747 
Q 959 1106 1268 751 
Q 1578 397 2138 397 
Q 2388 397 2633 464 
Q 2878 531 3122 666 
L 3122 134 
Q 2881 22 2623 -34 
Q 2366 -91 2075 -91 
Q 1284 -91 818 406 
Q 353 903 353 1747 
Q 353 2603 823 3093 
Q 1294 3584 2113 3584 
Q 2378 3584 2631 3529 
Q 2884 3475 3122 3366 
z
" transform="scale(0.015625)"/>
       <path id="DejaVuSans-61" d="M 2194 1759 
Q 1497 1759 1228 1600 
Q 959 1441 959 1056 
Q 959 750 1161 570 
Q 1363 391 1709 391 
Q 2188 391 2477 730 
Q 2766 1069 2766 1631 
L 2766 1759 
L 2194 1759 
z
M 3341 1997 
L 3341 0 
L 2766 0 
L 2766 531 
Q 2569 213 2275 61 
Q 1981 -91 1556 -91 
Q 1019 -91 701 211 
Q 384 513 384 1019 
Q 384 1609 779 1909 
Q 1175 2209 1959 2209 
L 2766 2209 
L 2766 2266 
Q 2766 2663 2505 2880 
Q 2244 3097 1772 3097 
Q 1472 3097 1187 3025 
Q 903 2953 641 2809 
L 641 3341 
Q 956 3463 1253 3523 
Q 1550 3584 1831 3584 
Q 2591 3584 2966 3190 
Q 3341 2797 3341 1997 
z
" transform="scale(0.015625)"/>
       <path id="DejaVuSans-69" d="M 603 3500 
L 1178 3500 
L 1178 0 
L 603 0 
L 603 3500 
z
M 603 4863 
L 1178 4863 
L 1178 4134 
L 603 4134 
L 603 4863 
z
" transform="scale(0.015625)"/>
       <path id="DejaVuSans-74" d="M 1172 4494 
L 1172 3500 
L 2356 3500 
L 2356 3053 
L 1172 3053 
L 1172 1153 
Q 1172 725 1289 603 
Q 1406 481 1766 481 
L 2356 481 
L 2356 0 
L 1766 0 
Q 1100 0 847 248 
Q 594 497 594 1153 
L 594 3053 
L 172 3053 
L 172 3500 
L 594 3500 
L 594 4494 
L 1172 4494 
z
" transform="scale(0.015625)"/>
       <path id="DejaVuSans-6c" d="M 603 4863 
L 1178 4863 
L 1178 0 
L 603 0 
L 603 4863 
z
" transform="scale(0.015625)"/>
      </defs>
      <use xlink:href="#DejaVuSans-63"/>
      <use xlink:href="#DejaVuSans-61" x="54.980469"/>
      <use xlink:href="#DejaVuSans-70" x="116.259766"/>
      <use xlink:href="#DejaVuSans-69" x="179.736328"/>
      <use xlink:href="#DejaVuSans-74" x="207.519531"/>
      <use xlink:href="#DejaVuSans-61" x="246.728516"/>
      <use xlink:href="#DejaVuSans-6c" x="308.007812"/>
      <use xlink:href="#DejaVuSans-2d" x="335.791016"/>
      <use xlink:href="#DejaVuSans-6c" x="371.875"/>
      <use xlink:href="#DejaVuSans-6f" x="399.658203"/>
      <use xlink:href="#DejaVuSans-73" x="460.839844"/>
      <use xlink:href="#DejaVuSans-73" x="512.939453"/>
     </g>
    </g>
   </g>
   <g id="PathCollection_1">
    <path d="M 190.552675 376.02 
L 194.513339 375.292008 
L 197.529172 374.770412 
L 200.545006 374.560092 
L 203.560839 374.66389 
L 208.084589 374.870878 
L 211.100423 374.70945 
L 218.640006 373.524939 
L 221.65584 372.945438 
L 224.671673 372.768228 
L 227.687507 372.776935 
L 230.70334 372.97432 
L 233.719174 373.33864 
L 236.735007 373.424741 
L 238.242924 373.318553 
L 242.766674 372.532104 
L 245.782507 371.627148 
L 247.290424 371.191401 
L 251.814174 370.16316 
L 253.527225 369.877413 
L 256.337924 369.700483 
L 259.353758 369.805325 
L 263.877508 370.091226 
L 266.739811 369.877413 
L 268.401258 369.64548 
L 271.417092 368.88752 
L 277.448759 366.748362 
L 278.956675 366.298886 
L 280.464592 366.009263 
L 281.972509 365.942712 
L 283.480426 366.109423 
L 289.512092 367.351737 
L 291.020009 367.417016 
L 292.527926 367.333147 
L 295.224754 366.806119 
L 297.051676 366.206041 
L 299.257552 365.270472 
L 301.475076 363.734826 
L 302.200029 362.199179 
L 301.387759 360.663532 
L 299.073054 359.127885 
L 297.051676 358.297402 
L 294.514271 357.592238 
L 294.035843 357.492731 
L 292.527926 357.320991 
L 291.020009 357.305796 
L 288.608801 357.592238 
L 286.496259 358.037518 
L 283.480426 358.667905 
L 281.972509 358.758342 
L 280.464592 358.61467 
L 278.956675 358.256216 
L 275.940842 357.167549 
L 271.417092 355.542375 
L 269.909175 355.143544 
L 266.893342 354.703869 
L 263.877508 354.650032 
L 256.337924 354.945449 
L 253.322091 354.63955 
L 251.814174 354.359097 
L 246.66447 352.985298 
L 244.274591 352.187902 
L 242.766674 351.839942 
L 239.75084 351.467257 
L 236.735007 351.361366 
L 227.687507 351.915768 
L 224.671673 351.819193 
L 221.067591 351.449651 
L 215.624173 350.301126 
L 212.608339 350.005454 
L 209.592506 349.930293 
L 200.545006 350.043715 
L 198.640234 349.914004 
L 196.021255 349.350172 
L 193.005422 348.665868 
L 191.288825 348.378358 
L 189.989588 347.995345 
L 188.481672 347.682491 
L 185.465838 347.384891 
L 182.450005 347.421686 
L 179.434171 347.815762 
L 176.418338 348.535677 
L 173.402504 349.270086 
L 171.498122 349.914004 
L 165.862921 350.855458 
L 162.847087 351.115754 
L 154.999591 351.449651 
L 147.76792 351.841727 
L 138.72042 351.702453 
L 128.165003 351.464419 
L 123.641253 351.809552 
L 111.135028 352.985298 
L 105.546252 353.242109 
L 101.022502 353.416804 
L 98.006668 353.681228 
L 93.482918 354.365444 
L 90.467085 354.827761 
L 87.451251 355.336653 
L 84.435418 356.067126 
L 82.927501 356.490095 
L 81.419584 357.058004 
L 79.911667 357.828848 
L 78.099121 359.127885 
L 76.890611 360.663532 
L 76.372346 362.199179 
L 76.525467 363.734826 
L 77.372106 365.270472 
L 79.1459 366.806119 
L 79.911667 367.257808 
L 81.419584 367.951976 
L 84.435418 368.913757 
L 87.451251 369.535876 
L 98.006668 371.123233 
L 102.530418 371.365448 
L 107.054169 371.553853 
L 123.425824 372.948706 
L 126.657086 373.322849 
L 129.672919 373.395073 
L 134.19667 373.115361 
L 137.212503 372.937161 
L 147.76792 372.839314 
L 150.783754 373.045098 
L 155.307504 373.48766 
L 164.355004 373.870778 
L 168.543031 374.484353 
L 173.402504 375.849167 
L 174.317939 376.02 
L 174.317939 376.02 
" clip-path="url(#p34b49fb09d)" style="fill: none; stroke: #55a868; stroke-width: 1.5"/>
    <path d="M 340.781261 364.259105 
L 342.289178 364.418925 
L 343.797095 363.995096 
L 344.191716 363.734826 
L 344.975116 362.199179 
L 344.010207 360.663532 
L 343.797095 360.543258 
L 342.289178 360.245804 
L 340.781261 360.482197 
L 340.403298 360.663532 
L 339.273344 361.928441 
L 339.117643 362.199179 
L 339.273344 362.73382 
L 339.757623 363.734826 
L 340.781261 364.259105 
z
" clip-path="url(#p34b49fb09d)" style="fill: none; stroke: #55a868; stroke-width: 1.5"/>
    <path d="M 182.450005 266.168121 
L 183.957922 266.167967 
L 185.42347 265.45343 
L 185.465838 265.431802 
L 186.967272 263.917783 
L 186.973755 263.909735 
L 187.873331 262.382136 
L 188.465415 260.84649 
L 188.481672 260.765307 
L 188.751546 259.310843 
L 188.80955 257.775196 
L 188.717776 256.239549 
L 188.581264 254.703902 
L 188.530382 253.168256 
L 188.721157 251.632609 
L 189.301191 250.096962 
L 189.989588 249.067846 
L 190.321684 248.561315 
L 191.497505 247.234716 
L 191.694336 247.025668 
L 193.005422 245.780032 
L 193.360759 245.490022 
L 194.513339 244.489792 
L 195.318095 243.954375 
L 196.021255 243.352918 
L 197.529172 242.50407 
L 197.830304 242.418728 
L 199.037089 241.829088 
L 200.545006 241.740264 
L 202.052922 242.25409 
L 202.305037 242.418728 
L 203.560839 242.862755 
L 205.068756 243.468396 
L 206.516939 243.954375 
L 206.576672 243.969719 
L 208.084589 244.20315 
L 209.592506 244.197769 
L 210.888234 243.954375 
L 211.100423 243.905669 
L 212.608339 243.193977 
L 213.678143 242.418728 
L 214.116256 241.828105 
L 214.698225 240.883081 
L 214.798843 239.347434 
L 214.116256 237.844056 
L 214.098592 237.811788 
L 212.608339 236.535969 
L 212.104013 236.276141 
L 211.100423 235.902456 
L 209.592506 235.690661 
L 208.084589 235.776611 
L 206.576672 236.090688 
L 205.939881 236.276141 
L 205.068756 236.617231 
L 203.560839 237.232118 
L 202.052922 237.724985 
L 201.418651 237.811788 
L 200.545006 238.055004 
L 199.481072 237.811788 
L 199.037089 237.757309 
L 197.529172 237.124167 
L 196.360544 236.276141 
L 196.021255 236.104906 
L 194.513339 235.039127 
L 194.180349 234.740494 
L 193.005422 233.914903 
L 192.082197 233.204847 
L 191.497505 232.809411 
L 189.989588 231.81508 
L 189.740653 231.6692 
L 188.481672 230.934238 
L 186.973755 230.299013 
L 186.341768 230.133553 
L 185.465838 229.855837 
L 183.957922 229.674623 
L 182.450005 229.806041 
L 181.393667 230.133553 
L 180.942088 230.248162 
L 179.434171 230.93126 
L 178.371408 231.6692 
L 177.926255 231.981082 
L 176.587991 233.204847 
L 176.418338 233.384694 
L 175.276854 234.740494 
L 174.910421 235.318898 
L 174.292065 236.276141 
L 173.629769 237.811788 
L 173.402504 238.77369 
L 173.239458 239.347434 
L 173.129145 240.883081 
L 173.356302 242.418728 
L 173.402504 242.551151 
L 173.822472 243.954375 
L 174.586911 245.490022 
L 174.910421 246.023245 
L 175.532463 247.025668 
L 176.418338 248.384295 
L 176.54831 248.561315 
L 177.39792 250.096962 
L 177.926255 251.605257 
L 177.937279 251.632609 
L 178.162777 253.168256 
L 178.169571 254.703902 
L 178.092895 256.239549 
L 178.036684 257.775196 
L 178.08842 259.310843 
L 178.326341 260.84649 
L 178.813374 262.382136 
L 179.434171 263.632853 
L 179.630342 263.917783 
L 180.942088 265.391397 
L 181.054088 265.45343 
L 182.450005 266.168121 
z
" clip-path="url(#p34b49fb09d)" style="fill: none; stroke: #55a868; stroke-width: 1.5"/>
   </g>
   <g id="PathCollection_2">
    <path d="M 174.910421 373.114968 
L 176.418338 373.636801 
L 177.926255 373.986559 
L 179.434171 374.206031 
L 180.942088 374.325798 
L 182.450005 374.364223 
L 183.957922 374.328529 
L 185.465838 374.215753 
L 186.973755 374.013142 
L 188.481672 373.698944 
L 189.989588 373.246399 
L 190.810697 372.948706 
L 191.497505 372.785441 
L 193.005422 372.388968 
L 194.513339 371.945174 
L 196.021255 371.510929 
L 196.466413 371.41306 
L 197.529172 371.253346 
L 199.037089 371.104095 
L 200.545006 371.036581 
L 202.052922 371.046591 
L 203.560839 371.112813 
L 205.068756 371.201608 
L 206.576672 371.277914 
L 208.084589 371.313953 
L 209.592506 371.290431 
L 211.100423 371.192751 
L 212.608339 371.006945 
L 214.116256 370.718436 
L 215.624173 370.315931 
L 216.940441 369.877413 
L 217.13209 369.82505 
L 218.640006 369.411555 
L 220.147923 368.985498 
L 221.65584 368.600532 
L 222.960612 368.341766 
L 223.163756 368.305477 
L 224.671673 368.140009 
L 226.17959 368.071426 
L 227.687507 368.112239 
L 229.195423 368.261244 
L 229.714554 368.341766 
L 230.70334 368.512681 
L 232.211257 368.798707 
L 233.719174 369.036269 
L 235.22709 369.179527 
L 236.735007 369.202543 
L 238.242924 369.086971 
L 239.75084 368.810748 
L 241.258757 368.341766 
L 241.258757 368.341766 
L 242.766674 367.766744 
L 244.274591 366.971522 
L 244.562832 366.806119 
L 245.782507 365.952995 
L 246.708335 365.270472 
L 247.290424 364.576349 
L 248.091259 363.734826 
L 248.56164 362.199179 
L 248.114676 360.663532 
L 247.290424 359.757387 
L 246.788592 359.127885 
L 245.782507 358.358491 
L 244.700473 357.592238 
L 244.274591 357.347854 
L 242.766674 356.601942 
L 241.258757 356.09502 
L 241.089222 356.056592 
L 239.75084 355.723531 
L 238.242924 355.535753 
L 236.735007 355.506646 
L 235.22709 355.611303 
L 233.719174 355.824634 
L 232.472014 356.056592 
L 232.211257 356.098418 
L 230.70334 356.335232 
L 229.195423 356.524606 
L 227.687507 356.619445 
L 226.17959 356.601327 
L 224.671673 356.475153 
L 223.163756 356.250631 
L 222.258782 356.056592 
L 221.65584 355.911997 
L 220.147923 355.456554 
L 218.640006 354.986975 
L 217.13209 354.563939 
L 216.965719 354.520945 
L 215.624173 354.095853 
L 214.116256 353.742541 
L 212.608339 353.512281 
L 211.100423 353.38676 
L 209.592506 353.347441 
L 208.084589 353.376314 
L 206.576672 353.452583 
L 205.068756 353.548383 
L 203.560839 353.627879 
L 202.052922 353.653619 
L 200.545006 353.597643 
L 199.037089 353.448794 
L 197.529172 353.213927 
L 196.402905 352.985298 
L 196.021255 352.874867 
L 194.513339 352.357172 
L 193.005422 351.885512 
L 191.497505 351.504367 
L 191.250977 351.449651 
L 189.989588 351.020551 
L 188.481672 350.65476 
L 186.973755 350.423588 
L 185.465838 350.299866 
L 183.957922 350.266916 
L 182.450005 350.319515 
L 180.942088 350.464173 
L 179.434171 350.720035 
L 177.926255 351.120069 
L 177.001657 351.449651 
L 176.418338 351.581901 
L 174.910421 352.003108 
L 173.402504 352.565138 
L 172.408686 352.985298 
L 171.894588 353.147655 
L 170.386671 353.614012 
L 168.878754 354.104283 
L 167.522685 354.520945 
L 167.370838 354.55792 
L 165.862921 354.837009 
L 164.355004 355.052427 
L 162.847087 355.190505 
L 161.339171 355.259857 
L 159.831254 355.292255 
L 158.323337 355.329439 
L 156.81542 355.407641 
L 155.307504 355.549025 
L 153.799587 355.757639 
L 152.29167 356.01465 
L 152.034279 356.056592 
L 150.783754 356.231232 
L 149.275837 356.393958 
L 147.76792 356.47445 
L 146.260003 356.472221 
L 144.752087 356.42077 
L 143.24417 356.359932 
L 141.736253 356.311503 
L 140.228337 356.27244 
L 138.72042 356.22199 
L 137.212503 356.137814 
L 136.230807 356.056592 
L 135.704586 356.004758 
L 134.19667 355.828839 
L 132.688753 355.67143 
L 131.180836 355.572105 
L 129.672919 355.557246 
L 128.165003 355.639978 
L 126.657086 355.822603 
L 125.352787 356.056592 
L 125.149169 356.087962 
L 123.641253 356.358955 
L 122.133336 356.652355 
L 120.625419 356.935682 
L 119.117502 357.1904 
L 117.609586 357.42259 
L 116.501973 357.592238 
L 116.101669 357.654855 
L 114.593752 357.908739 
L 113.085835 358.200264 
L 111.577919 358.519248 
L 110.070002 358.835967 
L 108.562085 359.113394 
L 108.456464 359.127885 
L 107.054169 359.382423 
L 105.546252 359.583078 
L 104.038335 359.753914 
L 102.530418 359.954649 
L 101.022502 360.241223 
L 99.514585 360.654799 
L 99.489959 360.663532 
L 98.006668 361.9134 
L 97.724799 362.199179 
L 98.006668 362.705538 
L 98.69745 363.734826 
L 99.514585 364.065475 
L 101.022502 364.511131 
L 102.530418 364.811665 
L 104.038335 365.024237 
L 105.546252 365.219285 
L 105.853429 365.270472 
L 107.054169 365.410533 
L 108.562085 365.654261 
L 110.070002 365.962111 
L 111.577919 366.30139 
L 113.085835 366.630668 
L 113.969525 366.806119 
L 114.593752 366.919365 
L 116.101669 367.165406 
L 117.609586 367.393994 
L 119.117502 367.633925 
L 120.625419 367.904322 
L 122.133336 368.199205 
L 122.843713 368.341766 
L 123.641253 368.515853 
L 125.149169 368.808996 
L 126.657086 369.020673 
L 128.165003 369.136789 
L 129.672919 369.157227 
L 131.180836 369.092292 
L 132.688753 368.962654 
L 134.19667 368.80045 
L 135.704586 368.644764 
L 137.212503 368.526858 
L 138.72042 368.453501 
L 140.228337 368.405678 
L 141.736253 368.355974 
L 142.065679 368.341766 
L 143.24417 368.298739 
L 144.752087 368.240474 
L 146.260003 368.211026 
L 147.76792 368.250339 
L 148.837177 368.341766 
L 149.275837 368.385034 
L 150.783754 368.61748 
L 152.29167 368.871988 
L 153.799587 369.094167 
L 155.307504 369.254585 
L 156.81542 369.349701 
L 158.323337 369.395715 
L 159.831254 369.423487 
L 161.339171 369.472546 
L 162.847087 369.579436 
L 164.355004 369.763212 
L 164.988903 369.877413 
L 165.862921 370.076496 
L 167.370838 370.507346 
L 168.878754 370.972854 
L 170.311292 371.41306 
L 170.386671 371.443018 
L 171.894588 372.101697 
L 173.402504 372.637266 
L 174.49999 372.948706 
L 174.910421 373.114968 
z
" clip-path="url(#p34b49fb09d)" style="fill: none; stroke: #55a868; stroke-width: 1.5"/>
   </g>
   <g id="PathCollection_3">
    <path d="M 180.942088 372.96916 
L 182.450005 373.05525 
L 183.957922 372.991608 
L 184.27108 372.948706 
L 185.465838 372.855511 
L 186.973755 372.644932 
L 188.481672 372.3172 
L 189.989588 371.843872 
L 191.075009 371.41306 
L 191.497505 371.287166 
L 193.005422 370.806867 
L 194.513339 370.264141 
L 195.648872 369.877413 
L 196.021255 369.772362 
L 197.529172 369.453631 
L 199.037089 369.230985 
L 200.545006 369.124198 
L 202.052922 369.129544 
L 203.560839 369.21874 
L 205.068756 369.344759 
L 206.576672 369.457038 
L 208.084589 369.514757 
L 209.592506 369.489517 
L 211.100423 369.360269 
L 212.608339 369.107279 
L 214.116256 368.709831 
L 215.157856 368.341766 
L 215.624173 368.185326 
L 217.13209 367.596437 
L 218.640006 366.907504 
L 218.881081 366.806119 
L 220.147923 366.186135 
L 221.65584 365.518174 
L 222.382289 365.270472 
L 223.163756 364.87306 
L 224.671673 364.363082 
L 226.17959 364.115936 
L 227.687507 364.174168 
L 229.195423 364.552708 
L 230.70334 365.178667 
L 230.886517 365.270472 
L 232.211257 365.705546 
L 233.719174 366.135329 
L 235.22709 366.407456 
L 236.735007 366.474415 
L 238.242924 366.307543 
L 239.75084 365.875378 
L 241.000513 365.270472 
L 241.258757 365.083235 
L 242.64365 363.734826 
L 242.766674 363.368144 
L 243.141378 362.199179 
L 242.766674 360.98365 
L 242.659806 360.663532 
L 241.258757 359.362563 
L 240.887808 359.127885 
L 239.75084 358.645997 
L 238.242924 358.30916 
L 236.735007 358.233544 
L 235.22709 358.374396 
L 233.719174 358.690971 
L 232.211257 359.127885 
L 232.211257 359.127885 
L 230.70334 359.722535 
L 229.195423 360.224857 
L 227.687507 360.509851 
L 226.17959 360.514399 
L 224.671673 360.239181 
L 223.163756 359.70433 
L 222.064562 359.127885 
L 221.65584 358.977335 
L 220.147923 358.254355 
L 218.867744 357.592238 
L 218.640006 357.490693 
L 217.13209 356.790858 
L 215.624173 356.224267 
L 215.0621 356.056592 
L 214.116256 355.756138 
L 212.608339 355.423524 
L 211.100423 355.238432 
L 209.592506 355.174923 
L 208.084589 355.208023 
L 206.576672 355.309501 
L 205.068756 355.441848 
L 203.560839 355.556301 
L 202.052922 355.600642 
L 200.545006 355.53438 
L 199.037089 355.339709 
L 197.529172 355.023704 
L 196.021255 354.619585 
L 195.727179 354.520945 
L 194.513339 354.04033 
L 193.005422 353.467279 
L 191.497505 353.000563 
L 191.443357 352.985298 
L 189.989588 352.438701 
L 188.481672 352.044822 
L 186.973755 351.794837 
L 185.465838 351.659379 
L 183.957922 351.619878 
L 182.450005 351.669746 
L 180.942088 351.814628 
L 179.434171 352.073255 
L 177.926255 352.478699 
L 176.610676 352.985298 
L 176.418338 353.039058 
L 174.910421 353.529668 
L 173.402504 354.186792 
L 172.696419 354.520945 
L 171.894588 354.848495 
L 170.386671 355.486583 
L 169.078748 356.056592 
L 168.878754 356.140631 
L 167.370838 356.661006 
L 165.862921 357.123295 
L 164.355004 357.48596 
L 163.660218 357.592238 
L 162.847087 357.720057 
L 161.339171 357.839969 
L 159.831254 357.894707 
L 158.323337 357.949441 
L 156.81542 358.063129 
L 155.307504 358.273126 
L 153.799587 358.589055 
L 152.29167 358.986721 
L 151.754692 359.127885 
L 150.783754 359.47449 
L 149.275837 359.907163 
L 147.76792 360.146707 
L 146.260003 360.171974 
L 144.752087 360.054883 
L 143.24417 359.899025 
L 141.736253 359.770125 
L 140.228337 359.670112 
L 138.72042 359.550873 
L 137.212503 359.352348 
L 136.098087 359.127885 
L 135.704586 359.06864 
L 134.19667 358.789517 
L 132.688753 358.530442 
L 131.180836 358.357388 
L 129.672919 358.315197 
L 128.165003 358.425883 
L 126.657086 358.693675 
L 125.149169 359.105954 
L 125.080625 359.127885 
L 123.641253 359.758094 
L 122.133336 360.484534 
L 121.732803 360.663532 
L 120.625419 361.86572 
L 120.26477 362.199179 
L 120.625419 362.800321 
L 121.07751 363.734826 
L 122.133336 364.316231 
L 123.641253 365.170987 
L 123.827969 365.270472 
L 125.149169 365.726576 
L 126.657086 366.115297 
L 128.165003 366.337977 
L 129.672919 366.393193 
L 131.180836 366.298468 
L 132.688753 366.087975 
L 134.19667 365.814027 
L 135.704586 365.541938 
L 137.212503 365.328393 
L 137.862877 365.270472 
L 138.72042 365.162638 
L 140.228337 365.044196 
L 141.736253 364.930519 
L 143.24417 364.780539 
L 144.752087 364.611449 
L 146.260003 364.505054 
L 147.76792 364.577003 
L 149.275837 364.903264 
L 150.276169 365.270472 
L 150.783754 365.396381 
L 152.29167 365.839408 
L 153.799587 366.23682 
L 155.307504 366.529594 
L 156.81542 366.706662 
L 158.323337 366.79349 
L 158.71599 366.806119 
L 159.831254 366.840797 
L 161.339171 366.915964 
L 162.847087 367.082715 
L 164.355004 367.377414 
L 165.862921 367.797372 
L 167.370838 368.311702 
L 167.438924 368.341766 
L 168.878754 368.969617 
L 170.386671 369.629248 
L 170.927254 369.877413 
L 171.894588 370.357913 
L 173.402504 371.032307 
L 174.45471 371.41306 
L 174.910421 371.617703 
L 176.418338 372.194334 
L 177.926255 372.5816 
L 179.434171 372.825338 
L 180.807971 372.948706 
L 180.942088 372.96916 
z
" clip-path="url(#p34b49fb09d)" style="fill: none; stroke: #55a868; stroke-width: 1.5"/>
   </g>
   <g id="PathCollection_4">
    <path d="M 177.926255 371.797933 
L 179.434171 372.150055 
L 180.942088 372.346388 
L 182.450005 372.416521 
L 183.957922 372.372834 
L 185.465838 372.212016 
L 186.973755 371.915707 
L 188.481672 371.451534 
L 188.586382 371.41306 
L 189.989588 371.033456 
L 191.497505 370.487383 
L 192.868733 369.877413 
L 193.005422 369.824497 
L 194.513339 369.284648 
L 196.021255 368.744377 
L 197.353572 368.341766 
L 197.529172 368.291875 
L 199.037089 368.021679 
L 200.545006 367.887279 
L 202.052922 367.886897 
L 203.560839 367.989103 
L 205.068756 368.138731 
L 206.576672 368.274827 
L 207.960066 368.341766 
L 208.084589 368.348783 
L 208.441666 368.341766 
L 209.592506 368.322869 
L 211.100423 368.176001 
L 212.608339 367.884656 
L 214.116256 367.425209 
L 215.565732 366.806119 
L 215.624173 366.77731 
L 217.13209 365.941335 
L 218.211048 365.270472 
L 218.640006 364.851485 
L 219.880896 363.734826 
L 220.147923 362.964721 
L 220.496761 362.199179 
L 220.147923 361.473778 
L 219.857173 360.663532 
L 218.640006 359.546522 
L 218.216104 359.127885 
L 217.13209 358.445913 
L 215.624173 357.633235 
L 215.533221 357.592238 
L 214.116256 357.03587 
L 212.608339 356.641018 
L 211.100423 356.419374 
L 209.592506 356.339938 
L 208.084589 356.373128 
L 206.576672 356.486448 
L 205.068756 356.637627 
L 203.560839 356.771704 
L 202.052922 356.828768 
L 200.545006 356.760785 
L 199.037089 356.544782 
L 197.529172 356.186108 
L 197.151743 356.056592 
L 196.021255 355.646846 
L 194.513339 355.032924 
L 193.194107 354.520945 
L 193.005422 354.437203 
L 191.497505 353.770601 
L 189.989588 353.275212 
L 188.745543 352.985298 
L 188.481672 352.90041 
L 186.973755 352.539769 
L 185.465838 352.342165 
L 183.957922 352.28132 
L 182.450005 352.347997 
L 180.942088 352.550392 
L 179.434171 352.915384 
L 179.219168 352.985298 
L 177.926255 353.279439 
L 176.418338 353.77336 
L 174.910421 354.471139 
L 174.808065 354.520945 
L 173.402504 355.114409 
L 171.894588 355.902917 
L 171.588318 356.056592 
L 170.386671 356.655335 
L 168.878754 357.424202 
L 168.496493 357.592238 
L 167.370838 358.151498 
L 165.862921 358.798345 
L 164.865844 359.127885 
L 164.355004 359.362368 
L 162.847087 359.802606 
L 161.339171 360.038955 
L 159.831254 360.145962 
L 158.323337 360.240374 
L 156.81542 360.432217 
L 155.838372 360.663532 
L 155.307504 360.958953 
L 153.799587 362.199179 
L 154.879673 363.734826 
L 155.307504 363.900422 
L 156.81542 364.27725 
L 158.323337 364.465054 
L 159.831254 364.562597 
L 161.339171 364.702515 
L 162.847087 365.019817 
L 163.476237 365.270472 
L 164.355004 365.506758 
L 165.862921 366.110417 
L 167.246626 366.806119 
L 167.370838 366.858666 
L 168.878754 367.653116 
L 170.140542 368.341766 
L 170.386671 368.469057 
L 171.894588 369.315646 
L 173.04348 369.877413 
L 173.402504 370.064155 
L 174.910421 370.791336 
L 176.418338 371.306453 
L 176.822619 371.41306 
L 177.926255 371.797933 
z
" clip-path="url(#p34b49fb09d)" style="fill: none; stroke: #55a868; stroke-width: 1.5"/>
    <path d="M 236.735007 363.85545 
L 237.412466 363.734826 
L 238.242924 363.287582 
L 238.993925 362.199179 
L 238.242924 361.377296 
L 236.735007 360.91017 
L 235.22709 361.397217 
L 234.213624 362.199179 
L 235.22709 363.521154 
L 235.739172 363.734826 
L 236.735007 363.85545 
z
" clip-path="url(#p34b49fb09d)" style="fill: none; stroke: #55a868; stroke-width: 1.5"/>
    <path d="M 128.165003 363.101792 
L 129.672919 363.596217 
L 131.180836 363.128835 
L 132.388007 362.199179 
L 131.180836 361.532644 
L 129.672919 361.262923 
L 128.165003 361.639345 
L 127.320222 362.199179 
L 128.165003 363.101792 
z
" clip-path="url(#p34b49fb09d)" style="fill: none; stroke: #55a868; stroke-width: 1.5"/>
   </g>
   <g id="PathCollection_5">
    <path d="M 177.926255 370.470069 
L 179.434171 370.854175 
L 180.942088 371.070067 
L 182.450005 371.150851 
L 183.957922 371.111269 
L 185.465838 370.949415 
L 186.973755 370.6475 
L 188.481672 370.172817 
L 189.203755 369.877413 
L 189.989588 369.604252 
L 191.497505 368.953815 
L 192.681601 368.341766 
L 193.005422 368.170319 
L 194.513339 367.401363 
L 195.710692 366.806119 
L 196.021255 366.621125 
L 197.529172 365.935303 
L 199.037089 365.433068 
L 199.97515 365.270472 
L 200.545006 365.127438 
L 202.052922 365.088478 
L 203.256788 365.270472 
L 203.560839 365.302933 
L 205.068756 365.563375 
L 206.576672 365.811906 
L 208.084589 365.957113 
L 209.592506 365.935789 
L 211.100423 365.703981 
L 212.468832 365.270472 
L 212.608339 365.206404 
L 214.116256 364.173552 
L 214.61419 363.734826 
L 215.198163 362.199179 
L 214.575368 360.663532 
L 214.116256 360.278678 
L 212.608339 359.346824 
L 212.012227 359.127885 
L 211.100423 358.890624 
L 209.592506 358.732529 
L 208.084589 358.770108 
L 206.576672 358.949332 
L 205.495248 359.127885 
L 205.068756 359.221177 
L 203.560839 359.520066 
L 202.052922 359.670717 
L 200.545006 359.561831 
L 199.037089 359.127885 
L 199.037089 359.127885 
L 197.529172 358.545725 
L 196.021255 357.770924 
L 195.751084 357.592238 
L 194.513339 356.913341 
L 193.005422 356.105502 
L 192.916359 356.056592 
L 191.497505 355.307726 
L 189.989588 354.704219 
L 189.395316 354.520945 
L 188.481672 354.186247 
L 186.973755 353.803928 
L 185.465838 353.592149 
L 183.957922 353.522256 
L 182.450005 353.583066 
L 180.942088 353.781224 
L 179.434171 354.14235 
L 178.375028 354.520945 
L 177.926255 354.650035 
L 176.418338 355.217325 
L 174.910421 356.019921 
L 174.844797 356.056592 
L 173.402504 356.875088 
L 172.312515 357.592238 
L 171.894588 357.927887 
L 170.386671 359.118822 
L 170.373619 359.127885 
L 168.909459 360.663532 
L 168.878754 360.746635 
L 168.159659 362.199179 
L 168.45579 363.734826 
L 168.878754 364.237795 
L 169.55176 365.270472 
L 170.386671 365.987575 
L 171.237422 366.806119 
L 171.894588 367.276117 
L 173.402504 368.309415 
L 173.450914 368.341766 
L 174.910421 369.218646 
L 176.418338 369.868259 
L 176.444302 369.877413 
L 177.926255 370.470069 
z
" clip-path="url(#p34b49fb09d)" style="fill: none; stroke: #55a868; stroke-width: 1.5"/>
   </g>
   <g id="PathCollection_6">
    <path d="M 180.942088 370.033007 
L 182.450005 370.160028 
L 183.957922 370.109193 
L 185.465838 369.877413 
L 185.465838 369.877413 
L 186.973755 369.571124 
L 188.481672 369.089433 
L 189.989588 368.388907 
L 190.081415 368.341766 
L 191.497505 367.600882 
L 192.758559 366.806119 
L 193.005422 366.612204 
L 194.513339 365.474515 
L 194.818779 365.270472 
L 196.021255 363.981164 
L 196.31815 363.734826 
L 196.934514 362.199179 
L 196.309934 360.663532 
L 196.021255 360.412359 
L 194.905775 359.127885 
L 194.513339 358.845051 
L 193.005422 357.652091 
L 192.932527 357.592238 
L 191.497505 356.665178 
L 190.308885 356.056592 
L 189.989588 355.897581 
L 188.481672 355.275073 
L 186.973755 354.87586 
L 185.465838 354.653596 
L 183.957922 354.577206 
L 182.450005 354.633364 
L 180.942088 354.826798 
L 179.434171 355.181284 
L 177.926255 355.741487 
L 177.276177 356.056592 
L 176.418338 356.462136 
L 174.910421 357.386816 
L 174.604105 357.592238 
L 173.402504 358.577161 
L 172.756223 359.127885 
L 171.894588 360.284475 
L 171.574434 360.663532 
L 171.015702 362.199179 
L 171.193581 363.734826 
L 171.894588 364.894182 
L 172.083926 365.270472 
L 173.402504 366.635661 
L 173.567828 366.806119 
L 174.910421 367.810508 
L 175.791274 368.341766 
L 176.418338 368.689033 
L 177.926255 369.341376 
L 179.434171 369.755141 
L 180.185056 369.877413 
L 180.942088 370.033007 
z
" clip-path="url(#p34b49fb09d)" style="fill: none; stroke: #55a868; stroke-width: 1.5"/>
   </g>
   <g id="PathCollection_7">
    <path d="M 180.942088 368.45659 
L 182.450005 368.622298 
L 183.957922 368.576984 
L 185.34485 368.341766 
L 185.465838 368.32373 
L 186.973755 367.915368 
L 188.481672 367.269654 
L 189.298191 366.806119 
L 189.989588 366.331738 
L 191.284304 365.270472 
L 191.497505 364.984915 
L 192.457447 363.734826 
L 192.837952 362.199179 
L 192.519399 360.663532 
L 191.497505 359.257239 
L 191.404502 359.127885 
L 189.989588 357.966206 
L 189.414766 357.592238 
L 188.481672 357.094936 
L 186.973755 356.53489 
L 185.465838 356.219299 
L 183.957922 356.103396 
L 182.450005 356.16633 
L 180.942088 356.411559 
L 179.434171 356.867963 
L 177.926255 357.592238 
L 177.926255 357.592238 
L 176.418338 358.611875 
L 175.793971 359.127885 
L 174.910421 360.257464 
L 174.593819 360.663532 
L 174.071884 362.199179 
L 174.230021 363.734826 
L 174.910421 364.93398 
L 175.096402 365.270472 
L 176.418338 366.530871 
L 176.773137 366.806119 
L 177.926255 367.493055 
L 179.434171 368.095707 
L 180.481508 368.341766 
L 180.942088 368.45659 
z
" clip-path="url(#p34b49fb09d)" style="fill: none; stroke: #55a868; stroke-width: 1.5"/>
   </g>
   <g id="PathCollection_8">
    <path d="M 180.942088 366.878158 
L 182.450005 367.103428 
L 183.957922 367.065245 
L 185.27773 366.806119 
L 185.465838 366.76669 
L 186.973755 366.176432 
L 188.439047 365.270472 
L 188.481672 365.229815 
L 189.771427 363.734826 
L 189.989588 362.954747 
L 190.208151 362.199179 
L 189.989588 361.34162 
L 189.819079 360.663532 
L 188.481672 359.127885 
L 188.481672 359.127885 
L 186.973755 358.275399 
L 185.465838 357.79082 
L 183.957922 357.603238 
L 182.450005 357.676688 
L 180.942088 358.010719 
L 179.434171 358.641539 
L 178.641733 359.127885 
L 177.926255 359.764806 
L 177.106553 360.663532 
L 176.535195 362.199179 
L 176.734065 363.734826 
L 177.810923 365.270472 
L 177.926255 365.365336 
L 179.434171 366.329349 
L 180.715873 366.806119 
L 180.942088 366.878158 
z
" clip-path="url(#p34b49fb09d)" style="fill: none; stroke: #55a868; stroke-width: 1.5"/>
   </g>
   <g id="PathCollection_9">
    <path d="M 182.450005 365.354609 
L 183.957922 365.329094 
L 184.194918 365.270472 
L 185.465838 364.823265 
L 186.973755 363.77456 
L 187.015043 363.734826 
L 187.573148 362.199179 
L 186.973755 360.663532 
L 186.973755 360.663532 
L 185.465838 359.738025 
L 183.957922 359.361847 
L 182.450005 359.453749 
L 180.942088 359.997057 
L 179.943829 360.663532 
L 179.434171 361.470191 
L 179.081344 362.199179 
L 179.421923 363.734826 
L 179.434171 363.748362 
L 180.942088 364.893172 
L 182.069517 365.270472 
L 182.450005 365.354609 
z
" clip-path="url(#p34b49fb09d)" style="fill: none; stroke: #55a868; stroke-width: 1.5"/>
   </g>
   <g id="PathCollection_10"/>
   <g id="patch_3">
    <path d="M 60.30875 376.02 
L 60.30875 70.426286 
" style="fill: none; stroke: #ffffff; stroke-width: 1.25; stroke-linejoin: miter; stroke-linecap: square"/>
   </g>
   <g id="patch_4">
    <path d="M 60.30875 376.02 
L 360.384179 376.02 
" style="fill: none; stroke: #ffffff; stroke-width: 1.25; stroke-linejoin: miter; stroke-linecap: square"/>
   </g>
  </g>
  <g id="axes_2">
   <g id="patch_5">
    <path d="M 60.30875 59.888571 
L 360.384179 59.888571 
L 360.384179 7.2 
L 60.30875 7.2 
z
" style="fill: #eaeaf2"/>
   </g>
   <g id="matplotlib.axis_3">
    <g id="xtick_7">
     <g id="line2d_12">
      <path d="M 75.311494 59.888571 
L 75.311494 7.2 
" clip-path="url(#p295a3446ef)" style="fill: none; stroke: #ffffff; stroke-linecap: round"/>
     </g>
    </g>
    <g id="xtick_8">
     <g id="line2d_13">
      <path d="M 129.325482 59.888571 
L 129.325482 7.2 
" clip-path="url(#p295a3446ef)" style="fill: none; stroke: #ffffff; stroke-linecap: round"/>
     </g>
    </g>
    <g id="xtick_9">
     <g id="line2d_14">
      <path d="M 183.33947 59.888571 
L 183.33947 7.2 
" clip-path="url(#p295a3446ef)" style="fill: none; stroke: #ffffff; stroke-linecap: round"/>
     </g>
    </g>
    <g id="xtick_10">
     <g id="line2d_15">
      <path d="M 237.353458 59.888571 
L 237.353458 7.2 
" clip-path="url(#p295a3446ef)" style="fill: none; stroke: #ffffff; stroke-linecap: round"/>
     </g>
    </g>
    <g id="xtick_11">
     <g id="line2d_16">
      <path d="M 291.367447 59.888571 
L 291.367447 7.2 
" clip-path="url(#p295a3446ef)" style="fill: none; stroke: #ffffff; stroke-linecap: round"/>
     </g>
    </g>
    <g id="xtick_12">
     <g id="line2d_17">
      <path d="M 345.381435 59.888571 
L 345.381435 7.2 
" clip-path="url(#p295a3446ef)" style="fill: none; stroke: #ffffff; stroke-linecap: round"/>
     </g>
    </g>
   </g>
   <g id="matplotlib.axis_4">
    <g id="ytick_6"/>
    <g id="ytick_7"/>
   </g>
   <g id="line2d_18">
    <path d="M 65.491324 59.887713 
L 74.226307 59.800859 
L 82.961291 59.412586 
L 97.519596 58.721288 
L 101.887088 58.444385 
L 106.254579 58.530331 
L 109.166241 58.543574 
L 112.077902 58.246209 
L 114.989563 57.821083 
L 116.445393 57.722886 
L 122.268716 57.758858 
L 123.724546 57.401706 
L 128.092038 55.743095 
L 129.547868 55.611505 
L 131.003699 55.867363 
L 135.371191 57.382234 
L 136.827021 57.499613 
L 138.282852 57.34881 
L 141.194513 56.839072 
L 142.650343 56.803773 
L 144.106174 57.000326 
L 147.017835 57.694685 
L 148.473666 57.865128 
L 149.929496 57.748117 
L 151.385327 57.332494 
L 154.296988 56.105928 
L 155.752818 55.68838 
L 157.208649 55.597748 
L 158.66448 55.825098 
L 161.576141 56.586658 
L 163.031971 56.70694 
L 164.487802 56.481817 
L 165.943632 55.940128 
L 168.855293 54.558595 
L 171.766955 53.424716 
L 173.222785 52.292486 
L 174.678616 49.804621 
L 176.134446 45.122225 
L 177.590277 37.852996 
L 180.501938 19.122524 
L 181.957768 12.062307 
L 183.413599 9.708939 
L 184.86943 12.902209 
L 186.32526 20.543705 
L 189.236921 39.182546 
L 190.692752 45.870956 
L 192.148582 49.809319 
L 193.604413 51.553739 
L 195.060243 52.077823 
L 196.516074 52.266786 
L 197.971905 52.628185 
L 200.883566 53.840022 
L 202.339396 54.099783 
L 203.795227 53.766207 
L 205.251057 52.824886 
L 208.162718 50.330953 
L 209.618549 49.717448 
L 211.07438 49.997684 
L 212.53021 51.154637 
L 215.441871 54.61907 
L 216.897702 56.03174 
L 218.353532 56.890134 
L 219.809363 57.221885 
L 225.632685 57.264315 
L 228.544346 57.758939 
L 230.000177 57.753792 
L 231.456007 57.408994 
L 232.911838 56.748485 
L 234.367668 55.950062 
L 235.823499 55.291746 
L 237.27933 55.034824 
L 238.73516 55.298947 
L 240.190991 56.005356 
L 243.102652 57.79925 
L 244.558482 58.446178 
L 246.014313 58.811977 
L 247.470143 58.948938 
L 253.293466 59.089128 
L 256.205127 59.307907 
L 259.116788 59.272921 
L 264.94011 58.825299 
L 267.851771 59.005198 
L 272.219263 59.442717 
L 276.586755 59.592794 
L 285.321738 59.647307 
L 292.600891 59.449 
L 301.335874 59.686917 
L 336.275807 59.755351 
L 343.55496 59.593721 
L 355.201605 59.885498 
L 355.201605 59.885498 
" clip-path="url(#p295a3446ef)" style="fill: none; stroke: #55a868; stroke-width: 1.5; stroke-linecap: round"/>
   </g>
   <g id="patch_6">
    <path d="M 60.30875 59.888571 
L 360.384179 59.888571 
" style="fill: none; stroke: #ffffff; stroke-width: 1.25; stroke-linejoin: miter; stroke-linecap: square"/>
   </g>
  </g>
  <g id="axes_3">
   <g id="patch_7">
    <path d="M 370.731607 376.02 
L 422.46875 376.02 
L 422.46875 70.426286 
L 370.731607 70.426286 
z
" style="fill: #eaeaf2"/>
   </g>
   <g id="matplotlib.axis_5">
    <g id="xtick_13"/>
    <g id="xtick_14"/>
   </g>
   <g id="matplotlib.axis_6">
    <g id="ytick_8">
     <g id="line2d_19">
      <path d="M 370.731607 362.354249 
L 422.46875 362.354249 
" clip-path="url(#p173b40f548)" style="fill: none; stroke: #ffffff; stroke-linecap: round"/>
     </g>
    </g>
    <g id="ytick_9">
     <g id="line2d_20">
      <path d="M 370.731607 298.474035 
L 422.46875 298.474035 
" clip-path="url(#p173b40f548)" style="fill: none; stroke: #ffffff; stroke-linecap: round"/>
     </g>
    </g>
    <g id="ytick_10">
     <g id="line2d_21">
      <path d="M 370.731607 234.593821 
L 422.46875 234.593821 
" clip-path="url(#p173b40f548)" style="fill: none; stroke: #ffffff; stroke-linecap: round"/>
     </g>
    </g>
    <g id="ytick_11">
     <g id="line2d_22">
      <path d="M 370.731607 170.713607 
L 422.46875 170.713607 
" clip-path="url(#p173b40f548)" style="fill: none; stroke: #ffffff; stroke-linecap: round"/>
     </g>
    </g>
    <g id="ytick_12">
     <g id="line2d_23">
      <path d="M 370.731607 106.833393 
L 422.46875 106.833393 
" clip-path="url(#p173b40f548)" style="fill: none; stroke: #ffffff; stroke-linecap: round"/>
     </g>
    </g>
   </g>
   <g id="line2d_24">
    <path d="M 371.29178 372.019436 
L 372.756022 370.523996 
L 376.629619 369.028555 
L 384.584485 367.533115 
L 396.961874 366.037675 
L 410.771577 364.542235 
L 420.005077 363.046795 
L 419.614966 361.551355 
L 409.82812 360.055915 
L 395.940096 358.560475 
L 383.835513 357.065034 
L 376.224104 355.569594 
L 372.589613 354.074154 
L 371.241626 352.578714 
L 370.849073 351.083274 
L 370.742115 348.092394 
L 370.740533 295.751989 
L 370.892769 267.338627 
L 371.029644 255.375106 
L 371.075765 246.402465 
L 371.506084 241.916144 
L 371.497337 238.925264 
L 371.086926 232.943504 
L 370.824682 228.457183 
L 370.82795 222.475423 
L 370.851226 206.025581 
L 370.761851 197.052941 
L 370.734859 170.135018 
L 370.731661 74.42685 
L 370.731661 74.42685 
" clip-path="url(#p173b40f548)" style="fill: none; stroke: #55a868; stroke-width: 1.5; stroke-linecap: round"/>
   </g>
   <g id="patch_8">
    <path d="M 370.731607 376.02 
L 370.731607 70.426286 
" style="fill: none; stroke: #ffffff; stroke-width: 1.25; stroke-linejoin: miter; stroke-linecap: square"/>
   </g>
  </g>
 </g>
 <defs>
  <clipPath id="p34b49fb09d">
   <rect x="60.30875" y="70.426286" width="300.075429" height="305.593714"/>
  </clipPath>
  <clipPath id="p295a3446ef">
   <rect x="60.30875" y="7.2" width="300.075429" height="52.688571"/>
  </clipPath>
  <clipPath id="p173b40f548">
   <rect x="370.731607" y="70.426286" width="51.737143" height="305.593714"/>
  </clipPath>
 </defs>
</svg>
